<svg width="548" height="465" viewBox="0 0 548 465" fill="none" xmlns="http://www.w3.org/2000/svg">
<path d="M234.208 358.025C234.106 359.237 234.181 360.496 233.842 361.644C226.908 385.388 222.072 409.598 217.63 433.883C216.983 437.363 216.574 440.906 216.046 444.417C215.132 450.557 214.187 456.688 213.255 463.014C213.474 463.263 213.756 463.751 214.153 464.048C215.101 464.779 216.178 464.908 216.991 463.888C217.965 462.624 218.836 461.269 219.648 459.898C224.823 451.375 229.126 442.427 233.127 433.303C241.548 414.086 248.963 394.474 255.505 374.564C260.165 360.375 263.994 345.964 267.239 331.364C267.698 329.295 268.395 327.29 269.002 325.261C269.041 325.113 269.081 324.965 269.121 324.816C269.137 324.757 269.301 324.738 269.368 324.724C269.202 324.87 269.006 325.008 268.84 325.154C269.913 326.839 269.369 328.631 269.162 330.354C267.605 343.278 267.245 356.237 267.421 369.212C267.695 387.867 267.902 406.536 269.465 425.124C270.221 434.157 271.074 443.184 271.838 452.188C272.054 454.819 272.136 457.477 272.297 460.315C273.439 460.558 274.433 460.761 275.701 461.005C276.203 459.488 276.835 458.196 277.096 456.868C277.99 452.343 278.855 447.811 279.543 443.23C283.493 417.226 285.876 391.024 288.534 364.863C290.117 349.119 291.661 333.397 293.117 317.651C294.166 306.148 295.03 294.626 296.012 283.137C296.206 280.87 296.527 278.606 297.437 276.277C297.64 277.062 297.939 277.841 297.986 278.615C299.107 296.005 300.46 313.361 302.722 330.643C304.177 341.928 306.095 353.147 308.02 364.335C310.686 379.756 313.486 395.15 317.495 410.296C319.909 419.424 322.092 428.585 324.409 437.718C324.842 439.423 325.034 441.316 326.645 442.415C327.123 442.765 327.963 442.832 328.538 442.7C328.874 442.631 329.296 441.887 329.31 441.477C329.294 438.456 329.278 435.434 329.098 432.431C328.554 423.201 328.106 413.965 327.33 404.768C326.348 393.26 325.105 381.778 323.966 370.26C323.414 364.617 322.937 358.93 322.287 353.293C321.352 345.165 320.312 337.072 319.28 328.95C317.904 317.845 316.595 306.726 315.063 295.611C313.361 283.116 312.091 270.547 309.531 258.172C309.104 256.088 308.745 253.991 308.461 251.85C308.355 251.059 308.556 250.192 309.136 249.331C309.534 250.454 309.94 251.547 310.308 252.662C314.022 264.171 317.706 275.672 321.382 287.203C324.586 297.178 327.744 307.204 331.015 317.165C334.228 326.983 338.259 336.481 342.544 345.856C351.9 366.182 361.39 386.481 372.501 405.944C376.398 412.738 379.793 419.746 382.662 427.058C383.397 428.939 384.353 429.64 385.148 429.281C386.311 428.735 386.381 427.642 386.355 426.555C386.211 423.181 386.395 419.768 385.847 416.477C383.257 401.012 379.478 385.833 374.571 370.955C369.606 355.934 364.403 340.977 359.543 325.921C354.605 310.685 348.497 295.898 342.382 281.141C339.529 274.246 336.06 267.631 332.884 260.872C331.885 258.793 330.96 256.672 330.103 254.536C329.946 254.176 330.282 253.631 330.409 253.157C332.089 253.289 332.408 254.709 333.084 255.621C338.631 263.015 343.899 270.621 349.612 277.869C358.407 289.024 367.436 300.02 376.51 310.964C387.839 324.64 399.317 338.23 410.728 351.833C418.257 360.839 426.338 369.325 434.615 377.673C434.74 377.802 434.84 378.019 434.988 378.059C435.627 378.167 436.433 378.478 436.913 378.225C437.364 377.965 437.774 377.027 437.656 376.519C437.421 375.503 436.886 374.534 436.298 373.645C434.071 370.222 431.844 366.798 429.504 363.439C417.784 346.482 406.223 329.408 394.27 312.61C387.159 302.636 379.544 293.004 371.958 283.38C363.702 272.941 355.174 262.683 346.767 252.331C346.242 251.682 345.8 250.96 344.63 249.28C346.643 250.423 347.543 250.855 348.375 251.427C355.198 255.955 362.037 260.424 368.769 265.055C374.78 269.175 380.791 273.295 386.588 277.739C401.696 289.284 416.688 301.019 431.713 312.637C439.868 318.951 448.274 324.92 457.1 330.271C458.743 331.251 460.329 332.565 462.822 331.677C462.473 330.726 462.388 329.623 461.79 328.891C459.088 325.34 456.288 321.922 453.503 318.444C436.19 296.875 416.766 277.376 395.82 259.407C384.067 249.334 371.53 240.288 358.345 232.118C353.056 228.859 347.813 225.548 343.369 221.149C343.221 221.109 343.065 221.099 342.954 221.038C342.895 221.022 342.868 220.888 342.824 220.812C342.97 220.979 343.116 221.145 343.262 221.311C344.554 220.641 345.658 221.381 346.819 221.788C354.544 224.493 362.183 227.397 369.979 229.835C388.694 235.74 407.872 239.322 427.299 241.859C442.456 243.856 457.632 245.54 472.669 248.457C476.504 249.199 480.316 250.03 484.039 250.837C485.618 248.497 485.661 247.746 484.077 246.781C482.574 245.87 481.004 244.973 479.378 244.283C467.397 239.326 455.48 234.132 443.329 229.573C432.857 225.624 422.143 222.34 411.468 218.908C400.972 215.524 390.444 212.258 379.884 209.111C374.796 207.589 369.576 206.444 364.411 205.092C363.285 204.791 362.151 204.518 361.049 203.651C362.243 203.463 363.423 203.208 364.623 203.116C373.118 202.47 381.647 202.055 390.117 201.149C399.146 200.169 407.91 197.689 416.728 195.605C417.064 195.536 417.497 195.462 417.716 195.235C418.164 194.751 418.761 194.181 418.785 193.615C418.818 193.02 418.418 192.024 417.959 191.838C416.186 191.108 414.323 190.355 412.422 190.1C406.258 189.274 400.079 188.508 393.888 188.024C375.768 186.536 357.67 186.864 339.637 189.084C339.107 189.164 338.593 189.185 338.042 189.228C335.933 189.393 333.794 189.551 331.007 189.757C332.149 188.697 332.75 187.874 333.569 187.426C338.055 184.912 342.627 182.547 347.142 180.041C354.752 175.822 362.327 171.499 369.915 167.243C380.636 161.254 391.868 156.322 403.07 151.383C410.381 148.164 417.692 144.946 425.103 141.944C431.861 139.245 438.734 136.83 445.593 134.348C449.779 132.833 453.978 131.385 458.192 130.005C472.409 125.429 486.584 120.778 500.872 116.411C508.862 113.978 516.971 111.926 525.309 110.92C534.139 109.856 542.919 108.619 551.735 107.487C552.959 107.307 554.204 107.164 555.436 106.954C557.138 106.648 558.425 105.754 558.945 104.051C559.42 102.4 558.27 99.9316 556.483 99.135C554.045 98.0372 551.56 97.1171 548.807 97.0783C544.506 97.0059 540.251 97.3586 536.119 98.3161C529.716 99.8085 523.326 101.368 516.992 103.197C504.188 106.881 491.412 110.7 478.65 114.586C460.771 120.023 443.32 126.592 426.16 133.969C413.243 139.497 400.715 145.828 388.353 152.49C374.917 159.721 361.486 167.049 348.042 174.31C343.033 177.002 338.023 179.694 332.992 182.348C331.145 183.314 329.263 184.176 327.356 185.126C327.136 184.527 326.851 184.165 326.945 183.936C333.297 167.342 339.619 150.74 346.031 134.162C351.29 120.578 356.698 107.035 361.958 93.4513C362.588 91.8097 364.233 90.0586 362.33 88.1511C360.122 88.4488 359.827 90.498 359.058 91.9438C349.125 110.405 339.264 128.95 330.334 147.934C327.679 153.575 324.802 159.094 322.015 164.636C321.66 165.367 321.106 166.013 320.587 166.763C319.739 165.424 320.448 164.439 320.783 163.544C328.898 140.371 332.65 116.409 334.393 92.0052C335.724 73.0493 337.338 54.1056 338.884 35.1756C339.085 32.5295 339.598 29.9035 339.955 27.2674C340.134 25.8861 340.04 25.7655 337.784 24.9386C335.804 28.0609 334.495 31.522 333.445 35.0841C330.393 45.2885 327.363 55.5305 324.519 65.7904C319.274 84.6507 315.35 103.801 311.671 122.985C310.7 128.03 309.663 133.088 308.566 138.131C308.268 139.48 307.644 140.742 307.168 142.044C307.183 142.461 307.19 142.908 307.181 142.588C307.101 142.884 307.205 142.499 307.337 142.122C307.392 139.309 307.358 136.473 307.547 133.633C308.486 120.29 308.099 107.036 306.514 93.7466C304.862 79.9949 303.711 66.1549 302.223 52.3836C301.469 45.4792 300.348 38.6356 299.489 31.7666C298.953 27.3666 298.58 22.9469 298.149 18.5114C298.087 17.7959 298.121 17.0745 298.021 16.3807C297.88 15.4852 297.626 14.6548 296.589 14.3769C295.64 14.1228 294.677 14.7541 294.209 16.0263C292.028 22.2711 290.743 28.7244 289.889 35.2296C289.205 40.5097 288.922 45.8338 288.386 51.1535C286.817 67.441 286.222 83.7672 285.881 100.098C285.675 110.588 285.097 121.043 284.646 131.499C284.615 131.967 284.281 132.386 283.94 133.184C283.573 132.419 283.305 131.997 283.201 131.557C280.315 118.141 276.562 105.002 271.702 92.2009C270.618 89.3694 269.422 86.603 268.121 83.8721C257.067 60.5177 244.202 38.2344 229.141 17.2686C225.323 11.9575 221.709 6.47857 217.968 0.99753C216.274 1.27417 215.625 1.79911 215.808 2.89622C215.888 3.42599 215.931 3.97746 216.154 4.45008C218.796 9.76379 219.463 15.6918 221.312 21.2377C223.338 27.3077 225.155 33.4485 227.182 39.5184C231.136 51.3143 235.015 63.1535 239.217 74.8568C243.789 87.5487 248.735 100.15 253.516 112.771C255.839 118.92 258.229 125.056 260.552 131.205C260.979 132.336 261.152 133.59 261.689 135.735C259.705 133.774 258.861 132.182 257.904 130.655C255.375 126.578 253.005 122.386 250.234 118.499C243.5 109.134 236.465 99.9437 229.694 90.6011C221.14 78.78 211.734 67.6516 201.958 56.8369C193.95 47.9573 185.199 39.9583 175.758 32.6324C166.34 25.3441 157.21 17.6885 147.936 10.2165C147.547 9.88998 147.083 9.6068 146.587 9.44217C146.291 9.36276 145.866 9.4077 145.603 9.55957C145.369 9.71938 145.094 10.1539 145.149 10.4227C145.286 11.0948 145.438 11.8342 145.793 12.4058C148.333 16.6759 150.753 21.0406 153.602 25.1075C157.404 30.4779 161.568 35.5642 165.566 40.7965C177.82 56.9444 189.344 73.5638 200.611 90.4319C209.998 104.477 219.943 118.101 230.708 131.15C231.715 132.372 232.676 133.646 233.637 134.92C233.702 135.033 233.617 135.233 233.616 135.709C231.552 134.521 230.062 132.851 228.532 131.329C221.74 124.554 214.971 117.69 207.268 111.941C197.456 104.579 187.492 97.4304 177.428 90.414C163.694 80.8576 149.286 72.3913 134.903 63.8361C127.726 59.5625 120.311 55.7016 113.035 51.5603C106.223 47.7021 99.5099 43.7117 92.7356 39.8318C92.2931 39.5862 91.7438 39.5026 90.914 39.2802C90.6837 40.1397 90.3132 40.9298 90.4052 41.6532C90.4914 42.2799 91.0994 42.8557 91.5889 43.3998C93.8014 45.9303 95.9525 48.5713 98.3312 50.9557C106.33 59.0388 114.063 67.4003 121.518 75.9729C129.922 85.6257 138.666 94.9568 148 103.747C156.074 111.31 165.031 117.713 174.216 123.859C180.273 127.927 186.391 131.885 192.456 135.924C193.155 136.398 193.771 136.944 194.432 137.439C193.621 138.333 192.946 137.771 192.369 137.553C185.565 134.968 178.724 132.404 171.952 129.7C150.779 121.232 129.041 114.517 106.694 109.959C90.4875 106.665 74.2234 103.704 57.9831 100.655C53.9621 99.8952 49.9072 99.3804 45.884 98.7471C45.5204 98.6815 45.2024 98.5645 44.8308 98.5285C43.7459 98.4284 42.6668 98.4251 42.0449 99.5608C41.6151 100.335 42.1098 101.452 43.3265 102.128C47.5532 104.372 51.7641 106.676 56.0978 108.758C81.9005 121.167 108.313 132.246 134.705 143.289C139.789 145.413 145.06 147.08 150.294 148.768C160.79 152.152 171.319 155.418 181.823 158.773C182.993 159.15 184.115 159.704 185.252 160.2C185.347 160.32 185.45 160.411 185.515 160.524C185.466 160.352 185.408 160.21 185.359 160.038C184.337 160.177 183.281 160.561 182.301 160.425C178.79 159.897 175.304 159.154 171.809 158.567C157.596 156.251 143.42 153.914 129.183 151.687C114.953 149.431 100.624 148.26 86.2708 147.177C69.2635 145.924 52.3044 144.016 35.3973 141.678C34.1721 141.508 32.9173 141.331 31.7038 141.355C31.2868 141.37 30.713 141.852 30.513 142.243C30.3425 142.642 30.3356 143.498 30.6298 143.704C31.8639 144.669 33.1334 145.74 34.5676 146.315C38.3605 147.808 42.2227 149.16 46.1463 150.402C50.8838 151.926 55.6849 153.212 60.4304 154.706C76.7552 159.811 93.4336 163.359 110.225 166.365C124.049 168.83 137.889 171.236 151.699 173.635C157.131 174.582 162.581 175.343 168.029 176.231C169.432 176.448 170.803 176.784 173.332 177.303C168.519 178.078 164.833 177.726 161.187 177.701C140.387 177.56 119.6 177.136 98.831 178.305C89.9584 178.818 81.1286 179.882 72.2814 180.656C59.7221 181.77 47.1332 182.875 34.5601 183.922C27.48 184.502 20.3724 184.948 13.276 184.286C12.8076 184.255 12.2815 184.559 11.8089 184.782C11.2236 185.07 11.062 186.265 11.6071 186.602C12.2115 186.954 12.8216 187.404 13.4599 187.511C15.916 187.947 18.3801 188.353 20.8325 188.566C32.1739 189.508 43.4935 190.413 54.8449 191.199C74.3364 192.547 93.8416 193.962 113.332 194.959C123.958 195.488 134.643 195.206 145.291 195.296C157.525 195.398 169.788 195.507 182.014 195.638C182.326 195.658 182.626 195.961 182.929 196.137C183.614 196.067 184.271 195.989 184.957 195.919C184.917 196.067 184.929 196.26 184.918 196.417C184.296 196.25 183.658 196.142 183.028 196.005C178.991 196.607 174.933 197.171 170.918 197.811C163.553 198.982 156.152 200.048 148.814 201.354C137.631 203.376 126.446 205.525 115.275 207.741C106.919 209.409 98.5604 211.203 90.2592 213.14C74.337 216.847 58.3988 220.612 42.5395 224.558C31.508 227.32 20.5669 230.455 9.58462 233.388C7.3565 233.998 5.07917 234.436 2.84312 235.076C2.02067 235.3 1.23155 235.756 0.472066 236.22C0.246596 236.35 0.0523295 236.838 0.0994087 237.136C0.14648 237.435 0.438587 237.767 0.719066 237.906C0.999545 238.044 1.40865 238.059 1.77435 237.998C9.35728 236.726 17.0232 237.16 24.6309 236.626C40.4058 235.485 56.1648 234.403 71.9535 233.329C75.6714 233.086 79.403 232.911 83.1071 232.601C98.6984 231.315 114.28 230.186 129.832 228.572C143.259 227.182 156.63 225.175 170.01 223.487C173.657 223.035 177.288 222.642 181.059 222.795C179.412 223.37 177.757 223.975 176.066 224.475C168.364 226.667 160.641 228.695 152.996 231.03C145.694 233.267 138.421 235.638 131.247 238.226C111.838 245.223 93.1887 254.011 74.6611 263.055C65.2362 267.645 55.6101 271.799 46.0926 276.142C35.2699 281.088 24.4256 285.996 13.6166 291.009C11.6214 291.935 9.23711 292.535 8.14935 294.817C9.20447 296.688 10.8075 296.514 12.4323 296.377C19.0361 295.796 25.4177 294.266 31.6813 292.228C47.7042 286.961 63.7648 281.671 79.7602 276.269C88.181 273.411 96.4521 270.164 104.873 267.307C115.15 263.803 125.447 260.463 135.766 257.161C145.598 254.015 155.445 250.935 165.296 247.953C168.513 246.973 171.836 246.307 175.199 245.492C174.587 246.948 173.087 246.737 172.08 247.293C170.84 248.009 169.543 248.583 168.246 249.156C146.49 258.51 125.457 269.201 105.642 282.219C94.9252 289.258 84.8205 297.096 74.9269 305.213C64.0599 314.118 53.2226 323.03 42.407 331.98C38.9805 334.81 35.6567 337.731 32.1905 340.71C33.0932 342.794 34.4935 343.614 36.4506 343.185C38.1685 342.82 39.9182 342.335 41.5594 341.663C58.4817 334.699 75.1536 327.128 91.171 318.206C102.485 311.899 113.995 305.93 125.448 299.819C127.303 298.823 129.237 298.007 131.382 297.47C130.499 298.155 129.639 298.877 128.727 299.554C119.535 306.239 110.218 312.796 101.223 319.692C95.3043 324.237 89.7211 329.189 84.1595 334.178C77.1397 340.461 70.2147 346.864 63.341 353.313C58.9327 357.436 54.6704 361.726 50.3351 365.932C49.2983 366.957 48.6012 368.136 48.5836 369.624C49.3429 370.939 50.5226 371.16 51.796 370.675C53.7812 369.905 55.7743 369.105 57.6373 368.079C62.3165 365.553 66.9898 362.93 71.5822 360.254C84.9972 352.509 98.8933 345.813 113.028 339.531C136.506 329.083 158.515 316.176 178.975 300.63C192.983 289.963 206.771 279.046 220.341 267.88C224.861 264.167 229.514 260.554 234.078 256.917C235.051 256.13 235.973 255.297 237.357 255.35C237.852 254.212 238.709 253.542 239.928 253.339C238.761 254.138 237.978 254.691 237.195 255.243C233.926 258.433 230.692 261.728 227.321 264.827C217.017 274.358 206.084 283.15 195.204 291.987C171.517 311.274 148.502 331.376 127.307 353.458C122.898 358.058 118.832 363.036 114.702 367.901C107.131 376.831 99.5827 385.798 92.0853 394.812C89.829 397.542 87.7563 400.417 85.5946 403.269C85.1611 403.82 84.6228 404.406 84.5074 405.074C84.3782 405.675 84.5867 406.556 84.9894 406.95C85.3921 407.344 86.3405 407.598 86.8724 407.391C87.8531 407.05 88.7057 406.358 89.5938 405.77C98.3419 400.268 106.056 393.409 114.046 386.942C129.499 374.438 144.93 361.897 160.236 349.227C172.682 338.935 185.128 328.643 197.268 317.951C207.912 308.574 218.696 299.267 228.383 288.839C229.315 287.85 230.628 287.217 231.795 286.418C231.835 286.27 231.904 286.13 231.966 286.019L231.625 286.341C229.101 289.952 226.731 293.701 224.045 297.206C208.094 318.089 191.879 338.774 176.141 359.81C162.833 377.589 150.863 396.299 139.468 415.354C136.015 421.13 132.804 427.068 129.372 432.882C128.383 434.555 127.152 436.067 126.032 437.641C125.529 438.332 125.056 439.031 124.347 440.017C127.257 440.892 129.564 440.462 131.621 438.948C133.166 437.806 134.619 436.416 135.923 434.987C140.751 429.769 145.499 424.498 150.298 419.272C171.016 396.839 190.89 373.64 209.774 349.636C211.644 347.278 213.391 344.792 215.291 342.443C215.914 341.657 216.854 341.114 217.639 340.435C217.885 339.993 218.16 339.559 218.413 339.086C218.504 338.984 218.603 338.852 218.694 338.749C218.544 338.836 218.402 338.893 218.222 338.972C218.47 339.705 218.254 340.155 217.477 340.329C217.421 341.012 217.594 341.789 217.317 342.35C207.182 362.155 199.05 382.783 190.991 403.494C185.071 418.711 178.922 433.835 172.855 449.012C172.187 450.675 171.556 452.317 172.092 454.112C173.401 455.035 174.599 454.593 175.521 453.76C176.7 452.679 177.755 451.468 178.678 450.159C184.201 442.11 189.806 434.114 195.168 425.958C205.106 410.801 213.842 394.91 222.873 379.224C225.963 373.858 228.456 368.11 231.303 362.583C232.087 361.078 232.262 359.124 234.158 358.33C234.321 357.484 234.484 356.638 234.618 355.785C235.077 356.321 235.106 356.805 234.936 357.204C234.728 357.625 234.328 357.931 234.039 358.298L234.208 358.025ZM270.17 262.459L270.139 262.101L269.978 262.344C269.703 262.778 269.42 263.242 269.145 263.677C269.193 264.325 269.088 264.837 268.276 264.905C269.043 266.191 268.265 267.316 267.836 268.44C264.797 276.583 261.72 284.748 258.621 292.875C258.108 294.199 257.395 295.437 256.77 296.699C254.736 300.855 252.539 304.904 250.704 309.145C244.945 322.341 239.444 335.637 233.575 348.771C228.046 361.107 222.274 373.283 215.011 384.741C212.082 389.388 209.448 394.241 206.651 398.987C200.96 408.611 195.319 418.28 189.488 427.835C187.382 431.305 184.865 434.537 182.546 437.855C182.426 437.95 182.313 438.015 182.192 438.109C182.364 438.06 182.536 438.011 182.679 437.954C181.945 436.9 182.468 435.896 182.827 434.912C184.821 429.602 186.756 424.276 188.929 419.014C195.081 404.113 201.153 389.159 207.594 374.368C212.626 362.82 217.687 351.28 223.501 340.132C232.368 323.164 241.847 306.518 251.134 289.758C251.625 288.873 252.47 288.21 253.153 287.44C252.994 286.73 253.137 286.196 254.008 286.144C254.358 283.061 255.283 281.149 257.581 278.62C258.081 275.451 259.006 273.539 261.212 271.112C261.829 267.625 262.915 265.47 265.632 262.323C266.247 258.962 268.232 255.11 270.84 252.252C270.622 251.526 270.867 251.083 271.658 250.978C272.164 247.905 273.273 245.661 276.019 242.172C276.294 241.738 276.599 241.311 276.866 240.906C277.013 240.12 277.131 239.326 277.329 238.585C277.361 238.466 277.829 238.496 278.636 238.331C277.852 239.36 277.274 240.095 276.734 240.807C276.863 241.509 276.75 242.051 275.878 242.103C275.489 245.334 274.348 247.696 271.547 250.916C271.766 251.642 271.601 252.138 270.781 252.236C270.85 252.572 271.088 252.985 270.966 253.206C269.48 256.143 268.002 259.051 266.435 261.934C266.312 262.156 265.858 262.193 265.543 262.299C265.051 265.915 263.866 268.202 261.094 271.081C260.758 274.231 260.033 275.752 257.462 278.589C257.352 281.608 255.831 283.964 253.86 286.104C253.585 286.539 253.31 286.973 253.005 287.4C253.495 288.77 252.593 289.767 252.046 290.859C244.508 305.357 237.783 320.263 231.235 335.216C226.584 345.818 221.468 356.136 214.877 365.678C214.054 366.855 213.371 368.102 212.695 369.318C212.044 370.446 212.21 371.602 212.934 371.51C213.523 371.446 214.266 371.042 214.549 370.578C215.843 368.478 216.982 366.242 218.253 364.105C223.291 355.735 228.027 347.189 231.98 338.243C242.493 314.537 254.166 291.364 266.06 268.314C266.676 267.081 267.654 266.041 268.432 264.915C268.383 264.267 268.577 263.779 269.33 263.695C269.149 262.948 269.403 262.476 270.194 262.37L270.17 262.459ZM342.877 130.045C343.153 129.61 343.458 129.184 343.725 128.779L343.729 128.526L343.525 128.694C343.25 129.128 342.975 129.563 342.67 129.989C342.859 130.707 342.746 131.248 341.874 131.301C341.875 132.127 342.135 133.054 341.839 133.801C337.587 145.049 333.282 156.252 328.911 167.469C328.538 168.385 327.788 169.169 327.216 170.001C327.12 170.833 327.003 171.627 326.907 172.459C326.602 172.885 326.305 173.282 326.03 173.717C326.1 174.403 325.957 174.936 325.145 175.004C325.744 176.562 325.499 177.831 323.966 178.691C324.08 181.231 322.775 183.136 321.139 184.858C320.872 185.263 320.596 185.697 320.329 186.102C320.083 186.544 319.875 186.965 319.63 187.407L319.558 187.674L319.74 187.469C319.978 187.056 320.253 186.622 320.491 186.209C320.353 185.537 320.599 185.094 321.301 184.965C321.047 182.355 322.042 180.303 324.107 178.76C323.419 177.178 324.418 176.175 325.336 175.119C325.641 174.693 325.917 174.258 326.221 173.832C326.518 173.435 326.823 173.008 327.12 172.611C327.216 171.779 327.312 170.947 327.408 170.115C326.963 169.996 326.224 169.671 326.096 169.796C325.336 170.736 324.619 171.751 324.072 172.843C321.822 177.449 319.652 182.109 317.372 186.707C316.27 188.921 315.08 191.112 313.727 193.195C312.391 195.219 310.687 196.954 307.38 197.561C308.166 195.93 308.646 194.851 309.214 193.796C314.808 183.352 320.55 172.947 326.004 162.434C330.734 153.314 335.125 144.04 339.745 134.86C340.361 133.627 341.258 132.533 342.036 131.408C342.311 130.973 342.586 130.539 342.862 130.104L342.877 130.045ZM438.772 312.845C438.023 313.152 437.604 312.818 437.34 312.144C436.534 311.832 435.621 311.683 434.96 311.188C432.557 309.369 430.215 307.439 427.857 305.569C413.698 294.278 399.585 282.937 385.342 271.72C380.201 267.674 374.741 263.987 369.409 260.176C366.952 258.438 364.389 256.862 361.895 255.145C356.774 251.613 351.814 247.838 346.517 244.608C341.029 241.264 336.111 237.214 331.254 233.054C324.797 227.512 318.395 221.89 311.992 216.267C310.936 215.349 309.986 214.269 309.112 213.145C307.153 210.619 305.231 208.071 303.392 205.45C302.956 204.825 302.949 203.902 302.691 202.848C305.739 203.093 308.069 204.353 310.301 205.745C311.966 206.763 313.615 207.84 315.25 208.85C320.833 212.315 326.486 215.64 331.954 219.297C339.211 224.101 346.14 229.42 353.483 234.023C360.421 238.36 367.267 242.799 373.946 247.511C376.535 249.348 378.993 251.436 381.574 253.303C384.573 255.504 387.816 257.39 390.671 259.775C407.898 274.079 424.003 289.607 438.897 306.335C440.189 307.793 441.241 309.441 442.383 310.986L442.683 311.288C442.683 311.288 442.547 310.966 442.49 310.824C440.642 310.964 439.699 309.504 438.532 308.524C431.371 302.413 424.355 296.117 417.087 290.168C398.294 274.713 378.87 260.075 358.814 246.252C355.003 243.642 351.085 241.195 347.167 238.747C345.421 237.676 343.629 236.656 340.972 236.262C343.116 239.282 345.864 240.526 348.253 242.278C363.906 253.683 379.469 265.19 395.183 276.485C408.471 286.048 421.121 296.331 432.958 307.634C434.474 309.089 436.39 310.237 437.158 312.349C437.638 312.573 438.11 312.826 438.59 313.05L438.795 313.232C438.795 313.232 438.725 313.023 438.697 312.888L438.772 312.845ZM157.997 395.638L158.696 394.332C158.942 393.89 159.15 393.469 159.395 393.027C159.641 392.584 159.879 392.171 160.124 391.729C160.358 391.093 160.43 390.35 160.804 389.783C164.924 383.772 168.912 377.662 173.238 371.832C183.694 357.704 194.26 343.637 204.93 329.661C224.321 304.236 243.367 278.56 260.911 251.846C265.372 245.037 270.592 238.717 275.487 232.183C275.738 231.837 276.203 231.644 277.394 230.756C276.599 232.417 276.266 233.186 275.89 233.879C269.668 245.839 263.357 257.774 257.208 269.817C253.884 276.296 250.98 282.982 246.963 289.084C237.257 303.732 227.765 318.531 217.786 333.01C212.164 341.192 205.944 348.991 199.631 356.67C188.697 369.971 177.55 383.121 166.382 396.233C161.424 402.051 156.239 407.65 151.157 413.34C150.346 414.234 149.657 415.384 148.22 415.411C148.033 415.87 147.817 416.32 147.631 416.778L147.508 417L147.75 416.81C147.966 416.36 148.174 415.939 148.39 415.489C150.748 411.547 152.893 407.452 155.517 403.708C164.25 391.151 173.768 379.217 183.948 367.778C193.893 356.625 203.082 344.857 211.63 332.631C212.141 331.911 212.66 331.16 213.03 330.37C213.47 329.44 213.394 328.657 212.003 328.634C211.569 329.185 211.106 329.727 210.702 330.286C203.223 340.892 195.427 351.255 186.795 360.949C178.299 370.489 169.581 379.906 162.017 390.235C161.507 390.956 160.988 391.706 159.925 391.644C160.262 392.401 159.876 392.774 159.166 392.933C158.92 393.376 158.705 393.826 158.467 394.239C158.251 394.689 158.027 395.169 157.781 395.612L157.578 395.779L157.908 395.614L157.997 395.638ZM247.168 260.107C246.981 260.565 246.817 261.061 246.63 261.519C245.179 265.038 242.435 267.574 239.985 270.316C228.115 283.558 215.461 296.049 202.039 307.731C187.167 320.677 172.171 333.493 157.131 346.235C147.512 354.394 137.725 362.349 128.012 370.387C119.4 377.513 110.81 384.677 102.139 391.788C101.203 392.554 100.042 392.973 98.9607 393.573C98.9326 393.915 99.2776 394.642 98.3927 394.151C98.6262 393.991 98.8596 393.832 99.093 393.672C98.846 391.986 100.163 391.1 101.014 390.057C106.303 383.597 111.775 377.281 116.961 370.729C124.853 360.837 133.807 351.96 142.841 343.137C158.99 327.325 176.328 312.881 193.688 298.474C206.399 287.903 219.278 277.537 231.361 266.227C242.643 255.655 253.947 245.12 265.28 234.594C266.422 233.534 267.376 232.106 269.157 231.98L269.142 231.563L269.054 231.889C266.309 236.68 263.248 241.228 259.005 244.856C257.645 246.016 256.462 247.351 255.235 248.61C245.608 258.577 235.418 267.917 224.688 276.668C218.508 281.714 212.328 286.76 206.388 292.093C196.511 300.977 186.794 310.095 177.034 319.137C174.448 321.557 171.935 324.06 169.444 326.6C168.959 327.106 168.1 327.702 168.765 328.896C170.853 327.74 172.612 326.274 174.29 324.754C177.185 322.131 180.079 319.508 182.974 316.885C193.343 307.466 203.618 297.926 214.134 288.674C224.113 279.881 234.333 271.375 244.488 262.756C245.108 262.223 246.005 261.955 246.77 261.589C246.957 261.13 247.121 260.635 247.308 260.176C247.248 260.16 247.189 260.145 247.138 260.099L247.168 260.107ZM113.482 55.9365L113.269 55.7841L113.421 56.0471C113.841 56.2552 114.284 56.5008 114.697 56.7384C115.837 57.1074 117.091 57.2848 118.116 57.8453C122.497 60.2262 126.84 62.6288 131.114 65.1715C152.484 77.8855 173.508 91.1742 193.686 105.729C201.62 111.444 209.487 117.173 216.653 123.858C231.345 137.546 245.054 152.178 258.368 167.212C258.879 167.794 259.824 168.301 259.437 169.627C258.176 168.876 256.989 168.209 255.848 167.49C253.425 165.983 251.101 164.344 248.646 162.956C240.455 158.315 232.203 153.785 224.005 149.174C218.431 146.029 212.796 142.995 207.375 139.636C196.039 132.628 184.756 125.539 173.618 118.267C166.051 113.317 158.614 108.116 152.135 101.71C147.845 97.4482 143.457 93.3182 139.122 89.1073C129.441 79.7158 120.154 69.9215 111.577 59.4917C111.146 58.9635 110.92 58.2676 110.61 57.6446C110.276 57.5869 109.535 57.8647 110.107 57.0333C110.237 57.2588 110.389 57.5218 110.519 57.7473C112.2 57.4035 113.032 58.8018 114.12 59.6015C120.344 64.3503 126.546 69.0615 132.679 73.913C138.231 78.323 143.722 82.8437 149.176 87.386C157.808 94.5271 166.402 101.69 175.013 108.794C176.055 109.645 177.066 110.614 179.005 110.848C177.996 108.449 176.268 107.192 174.72 105.856C171.33 102.979 167.924 100.16 164.451 97.3554C151.866 87.1857 139.302 77.0535 126.701 66.943C123.514 64.3739 120.266 61.9153 117.117 59.3244C116.206 58.5723 115.577 57.4826 114.782 56.5389C114.332 56.3229 113.881 56.107 113.431 55.891L113.482 55.9365ZM363.381 280.065C363.116 279.867 362.844 279.699 362.587 279.471C362.484 279.38 362.51 279.165 362.453 279.023C362.661 279.078 362.957 279.158 363.022 279.27C363.166 279.563 363.167 279.913 363.244 280.219C364.565 280.033 364.728 280.966 364.853 281.921C365.755 282.703 366.816 283.368 367.597 284.244C369.764 286.826 371.894 289.43 373.932 292.136C384.702 306.234 395.465 320.363 406.189 334.513C407.245 335.907 408.585 337.188 408.739 339.103C410.168 339.581 410.16 340.913 410.491 342.05C410.809 342.167 411.105 342.246 411.407 342.422C411.467 342.438 411.425 342.713 411.415 342.869C411.152 342.545 410.89 342.22 410.627 341.896C409.341 341.361 409.011 340.224 408.898 338.986C407.294 339.16 406.879 337.747 406.194 336.864C399.659 328.538 393.131 320.182 386.678 311.783C380.35 303.512 374.067 295.189 367.821 286.846C366.679 285.301 365.252 283.87 365.003 281.834C363.819 281.866 363.777 280.839 363.402 280.103L363.381 280.065ZM281.034 240.88C281.132 241.7 281.623 242.594 280.593 243.239C280.957 244.131 281.203 244.991 280.07 245.545C280.19 246.403 280.495 247.279 280.369 248.103C278.793 258.607 277.15 269.126 275.515 279.614C275.364 280.654 275.145 281.707 274.867 282.744C272.337 292.898 269.688 303.02 267.315 313.183C261.271 339.294 254.71 365.202 245.652 390.473C241.59 401.837 237.041 413.006 232.322 424.098C231.656 425.634 231.512 427.597 229.586 428.383C230.125 429.925 229.193 430.914 228.313 431.949C228.214 432.081 228.152 432.192 228.053 432.324C228.204 432.237 228.324 432.143 228.475 432.056C228.194 430.615 228.053 429.243 229.696 428.444C228.813 427.001 229.676 425.676 230.055 424.379C232.508 415.698 235.169 407.072 237.504 398.359C239.656 390.328 241.474 382.239 243.359 374.136C243.752 372.431 244.191 370.674 243.454 368.92L243.632 368.968C242.056 371.055 241.828 373.567 241.201 375.908C238.262 386.874 235.502 397.887 232.386 408.804C229.193 419.892 225.673 430.892 222.251 441.887C221.92 443.005 221.977 444.45 220.467 444.871C220.899 445.749 220.781 446.543 220.063 447.209C219.98 447.282 219.918 447.392 219.835 447.465C219.978 447.408 220.09 447.343 220.233 447.286C219.86 446.424 219.399 445.538 220.615 444.911C220.458 444.075 220.093 443.183 220.211 442.388C220.632 439.039 221.082 435.697 221.749 432.382C224.481 418.629 227.272 404.893 230.122 391.172C234.456 370.257 241.263 350.069 248.685 330.077C258.896 302.637 269.81 275.417 278.749 247.51C278.993 246.718 279.129 245.737 280.226 245.555C279.802 244.647 279.586 243.795 280.749 243.249C280.896 242.463 281.035 241.706 281.212 240.927C281.311 240.795 281.38 240.655 281.471 240.552C281.321 240.639 281.2 240.734 281.042 240.85L281.034 240.88ZM266.829 187.204C266.829 187.204 266.997 187.408 267.099 187.499C267.042 187.356 266.993 187.184 266.936 187.042C266.076 187.288 265.2 187.593 264.486 186.703C263.657 186.83 262.75 187.254 262.18 186.18C261.316 186.203 260.45 186.352 259.597 186.219C255.048 185.413 250.555 184.4 245.974 183.712C225.635 180.549 205.318 177.424 184.847 174.989C163.887 172.485 143.056 168.905 122.241 165.265C100.365 161.436 78.6241 157.104 57.4216 150.406C55.4301 149.777 53.2068 149.658 51.6494 148.002C51.2186 147.95 50.7879 147.898 50.3571 147.846C50.4777 147.751 50.6519 147.575 50.7328 147.629C51.0133 147.768 51.2779 147.966 51.5425 148.164C54.0141 147.238 56.4718 148.023 58.9163 148.265C70.7593 149.469 82.5648 150.695 94.3999 151.928C103.047 152.848 111.745 153.463 120.327 154.746C141.403 157.884 162.416 161.259 183.45 164.672C197.812 167.027 212.066 170.021 225.977 174.415C233.446 176.766 240.91 179.02 248.396 181.312C252.306 182.487 256.232 183.602 260.134 184.806C260.934 185.021 261.914 185.156 262.089 186.283C262.996 185.859 263.793 185.85 264.349 186.857C265.143 186.975 265.975 187.07 266.77 187.188L266.829 187.204ZM396.165 327.824C396.422 328.052 396.686 328.25 396.868 328.521C396.933 328.634 396.765 328.906 396.679 329.106C396.622 328.963 396.536 328.813 396.486 328.641C396.41 328.335 396.341 327.998 396.272 327.662C394.952 327.849 394.955 326.769 394.663 325.961C393.533 325.912 393.233 325.133 393.1 324.208C392.293 323.547 391.356 323.01 390.737 322.24C379.028 308.208 366.994 294.438 355.73 280.048C344.504 265.637 334.047 250.606 323.325 235.853C322.277 234.429 321.508 232.793 320.724 231.217C320.392 230.557 319.789 229.728 320.719 228.865C321.261 229.328 321.858 229.711 322.318 230.247C329.693 238.639 337.024 247.083 344.437 255.454C347.263 258.658 349.91 261.94 351.336 266.102C351.862 267.577 352.799 268.939 353.685 270.257C358.384 277.138 362.963 284.114 367.941 290.785C375.256 300.59 382.887 310.163 390.36 319.853C391.416 321.247 392.839 322.454 392.964 324.362C394.26 324.265 394.265 325.314 394.519 326.144C395.068 326.704 395.616 327.264 396.165 327.824ZM297.146 212.639C297.469 213.805 298.394 214.974 297.051 216.076C297.84 217.399 297.488 218.829 297.368 220.226C296.638 227.813 295.929 235.437 295.258 243.039C293.267 266.234 291.315 289.406 289.303 312.563C287.962 328.118 286.457 343.692 285.175 359.262C282.843 387.765 280.138 416.232 275.741 444.498C275.542 445.716 275.262 446.879 274.816 449.015C273.454 442.837 273.713 437.602 274.271 432.32C276.052 415.359 277.834 398.398 279.451 381.456C281.528 359.714 283.42 337.955 285.371 316.211C286.106 307.895 286.901 299.595 287.539 291.285C287.732 288.669 288.358 285.978 287.278 283.37L287.426 283.409C287.103 284.022 286.611 284.557 286.473 285.187C286.103 287.279 285.793 289.388 285.579 291.491C283.045 317.779 280.503 344.098 277.97 370.387C276.509 385.56 275.078 400.74 273.52 415.919C273.386 417.249 273.829 418.797 272.553 419.885C272.56 420.331 272.567 420.778 272.558 420.458C272.471 420.784 272.582 420.369 272.685 419.984C272.387 418.252 271.835 416.516 271.798 414.759C271.632 401.628 271.406 388.48 271.523 375.361C271.636 359.764 271.855 344.131 273.828 328.587C275.775 313.259 277.499 297.934 279.447 282.605C282.236 260.578 285.909 238.692 290.516 216.993C290.734 215.939 290.916 214.908 291.193 213.871C291.503 212.715 292.175 212.577 294.248 213.26C294.132 215.706 293.4 218.083 292.824 220.47C290.288 231.003 288.538 241.683 287.054 252.435C286.942 253.326 286.425 254.426 287.687 255.05C289.347 253.716 289.245 251.847 289.579 250.126C291.587 240.023 293.506 229.896 295.536 219.831C295.789 218.533 295.607 216.959 297.094 216.151C296.481 215.002 296.47 213.855 297.241 212.759C297.28 212.611 297.32 212.463 297.352 212.344C297.368 212.285 297.502 212.258 297.577 212.214C297.411 212.36 297.215 212.498 297.049 212.644L297.146 212.639ZM229.235 235.989C228.154 237.891 226.333 238.166 224.418 238.32C224.21 238.74 224.102 239.379 223.734 239.566C222.215 240.493 220.661 241.315 219.055 242.092C201.275 250.955 184.072 260.862 167.268 271.415C157.348 277.619 147.427 283.823 137.224 289.538C122.865 297.602 108.217 305.208 93.5335 312.708C79.1721 320.073 64.6965 327.153 50.0198 333.798C48.1077 334.651 46.2346 335.833 43.9759 335.609C43.9065 335.749 43.8451 335.86 43.7758 336C43.8965 335.905 44.0171 335.81 44.1457 335.686C45.0561 334.659 45.9014 333.52 46.9361 332.622C52.0049 328.167 57.1468 323.796 62.2453 319.349C74.6858 308.484 87.3888 297.943 101.301 288.934C114.876 280.12 128.833 272.011 143.411 265.023C159.888 257.113 176.595 249.646 193.273 242.172C208.683 235.279 224.322 228.956 240.517 224.115C245.109 222.741 249.675 221.233 254.267 219.858C254.859 219.667 255.792 219.028 256.312 220.406C249.711 223.466 243.111 226.525 236.526 229.525C224.736 234.879 212.873 240.15 201.084 245.504C191.717 249.759 182.276 253.932 173.096 258.556C160.096 265.11 147.326 272.107 134.404 278.841C129.862 281.213 125.181 283.389 120.587 285.716C119.521 286.256 118.956 287.534 119.511 287.714C120.126 287.911 120.891 288.021 121.503 287.867C122.506 287.564 123.467 287.059 124.42 286.584C131.027 283.145 137.678 279.781 144.228 276.2C155.938 269.84 167.496 263.217 179.637 257.736C191.921 252.197 204.278 246.741 216.627 241.315C219.222 240.167 221.609 238.488 224.558 238.389C225.169 237.886 225.731 237.211 226.451 236.895C227.388 236.479 228.44 236.348 229.434 236.075C230.375 234.58 231.865 234.471 233.484 234.714C232.07 235.129 230.686 235.552 229.273 235.968L229.235 235.989ZM301.999 174.139C303.411 181.315 301.934 188.129 299.478 194.809C298.994 196.14 297.857 196.471 296.362 195.53C298.092 188.72 299.821 181.909 301.559 175.069C301.638 174.773 301.962 174.51 302.16 174.245C302.242 173.823 302.316 173.429 302.367 172.999C302.425 173.141 302.6 173.315 302.577 173.404C302.408 173.677 302.189 173.904 301.991 174.168L301.999 174.139ZM305.53 187.632C304.567 186.008 304.522 184.28 304.716 182.49C305.435 176.489 305.9 170.483 306.834 164.508C307.986 157.129 309.374 149.814 310.829 142.485C314.198 125.41 317.321 108.3 321.231 91.3372C324.787 75.9316 329.203 60.7563 333.322 45.5015C333.814 43.6641 334.056 41.6959 335.523 39.8971C335.872 41.6743 335.712 43.2197 335.604 44.8105C334.388 61.7961 333.29 78.8135 331.977 95.8048C329.732 125.284 322.595 153.579 311.048 180.788C310.521 182.044 309.698 183.221 309 184.4L308.929 184.667L309.133 184.499C309.561 182.073 309.84 179.607 310.446 177.228C312.64 168.445 314.924 159.687 317.14 150.942C317.576 149.312 318.185 147.633 317.479 144.934C316.475 147.969 315.68 150.106 315.092 152.299C312.893 160.509 310.922 168.811 308.634 176.996C307.681 180.553 307.342 184.306 305.36 187.554C305.287 187.948 305.205 188.37 305.161 188.772C305.096 188.659 304.928 188.455 304.974 188.404C305.142 188.131 305.332 187.896 305.522 187.661L305.53 187.632ZM444.401 234.816C444.856 234.779 445.303 234.772 445.787 234.743C445.666 234.837 445.551 235.029 445.463 235.005C445.137 234.918 444.826 234.771 444.479 234.646C443.943 234.63 443.405 234.74 442.902 234.605C427.974 231.399 413.062 228.134 398.172 224.906C395.917 224.429 393.679 223.893 391.4 223.505C390.889 223.4 389.978 223.124 389.852 224.424C391.14 224.833 392.464 225.346 393.813 225.644C407.478 228.702 421.165 231.798 434.869 234.708C443.554 236.558 452.214 238.498 460.596 241.474L460.734 241.67L460.636 241.326C458.937 242.332 457.169 241.699 455.424 241.454C446.64 240.212 437.875 238.785 429.073 237.729C410.178 235.461 391.606 231.628 373.224 226.734C360.324 223.31 347.831 218.723 335.407 213.997C330.134 211.98 325.082 209.261 319.996 206.786C317.302 205.461 314.693 203.936 312.098 202.478C311.906 202.363 311.853 201.968 311.573 201.353C313.492 201.422 315.233 201.444 316.943 201.585C330.246 202.672 343.301 205.281 356.374 207.703C364.936 209.299 373.46 210.916 381.797 213.467C394.177 217.293 406.604 220.94 418.952 224.884C426.562 227.304 434.039 230.102 441.586 232.759C442.688 233.15 444.109 233.181 444.38 234.778L444.401 234.816ZM51.3365 186.511C50.9116 186.556 50.4569 186.593 50.8523 186.54C50.467 186.437 50.8523 186.54 51.2375 186.643C52.9772 186.315 54.6972 185.823 56.4564 185.659C65.1179 184.867 73.809 184.083 82.4683 183.418C89.7342 182.855 96.9942 182.196 104.246 182.043C118.108 181.755 131.935 181.839 145.809 181.744C169.613 181.579 193.411 181.794 217.17 183.808C235.624 185.354 253.739 188.874 271.884 192.402C272.7 192.557 273.817 192.539 274.195 193.974C271.95 193.817 269.831 193.662 267.75 193.486C264.027 193.155 260.322 192.639 256.611 192.502C239.749 191.891 222.865 191.719 205.992 191.74C190.549 191.763 175.098 191.339 159.621 191.131C151.109 191.01 142.563 190.658 134.031 190.849C122.819 191.085 111.664 190.987 100.477 190.181C93.0286 189.646 85.586 189.208 78.1435 188.771C70.8867 188.351 63.6061 188.02 56.3356 187.533C54.6478 187.43 52.75 187.875 51.2931 186.436L51.3365 186.511ZM160.76 28.7407C160.612 28.701 160.205 28.5602 160.653 28.9027C161.175 29.3282 161.809 29.6887 162.239 30.2169C167.443 36.2808 172.768 42.2499 177.731 48.5032C184.443 57.0037 190.83 65.7668 197.383 74.3837C198.323 75.6201 198.973 77.2237 200.88 77.5758C201.252 75.3568 200.005 73.8473 198.862 72.3024C193.353 64.8863 187.964 57.3756 182.259 50.0976C177.006 43.3854 171.354 36.9791 165.905 30.4051C165.212 29.5524 164.235 28.8141 164.211 27.1242C175.549 35.7845 186.761 43.9663 196.075 54.3713C202.358 61.391 208.715 68.3674 214.606 75.6633C221.065 83.6833 227.079 92.0605 233.251 100.321C238.259 107 243.463 113.54 248.117 120.473C253.774 128.881 258.858 137.644 264.364 146.14C268.499 152.52 270.777 159.547 272.852 166.742C272.999 167.258 273.493 168.025 272.308 168.534C270.43 165.585 268.53 162.598 266.623 159.641C261.29 151.446 255.988 143.26 250.618 135.087C249.087 132.739 247.58 130.302 244.831 128.232C245.331 131.701 247.222 133.891 248.685 136.253C256.947 149.52 265.208 162.788 273.431 176.077C273.787 176.648 273.879 177.372 274.324 178.793C270.614 175.449 268.357 172.017 265.843 168.834C256.509 156.963 247.424 144.872 237.795 133.271C224.941 117.82 212.917 101.765 201.216 85.4482C188.592 67.8353 176.398 49.9246 163.066 32.8208C162.118 31.6141 161.549 30.0639 160.806 28.6894L160.76 28.7407ZM380.071 414.325C381.279 415.03 381.814 415.999 381.238 417.91C380.788 416.391 380.479 415.292 380.17 414.193C379.735 413.918 379.142 413.759 378.926 413.383C376.072 408.267 373.181 403.172 370.477 397.969C361.069 379.852 352.105 361.505 344.01 342.755C340.128 333.773 336.267 324.83 333.305 315.492C330.472 306.506 327.392 297.612 324.521 288.648C320.159 274.932 315.589 261.288 311.646 247.431C308.295 235.637 305.661 223.655 302.75 211.758C302.701 211.586 303.033 211.294 303.156 211.073C303.525 211.235 303.956 211.287 304.124 211.491C306.799 215.257 309.671 218.885 311.97 222.868C315.499 229.023 318.547 235.43 321.189 242.046C323.567 247.988 325.938 253.96 328.797 259.649C336.157 274.264 342.722 289.237 348.337 304.558C353.063 317.387 357.152 330.458 361.526 343.414C363.738 349.978 365.949 356.543 368.019 363.164C371.068 373.002 373.976 382.897 376.883 392.793C377.418 394.588 377.669 396.497 378.032 398.342C375.585 394.319 373.607 390.2 371.893 385.929C367.498 375.063 363.179 364.154 358.927 353.232C354.189 341.162 349.555 329.057 344.786 316.98C343.001 312.499 341.651 307.817 338.806 303.498C338.147 305.481 338.733 306.972 339.251 308.477C341.401 314.675 343.44 320.939 345.762 327.088C351.265 341.522 356.873 355.921 362.585 370.284C367.72 383.127 373.132 395.885 378.364 408.722C379.093 410.506 379.462 412.447 379.974 414.331L380.071 414.325ZM262.922 180.566C262.922 180.566 263.157 180.756 263.251 180.877C263.165 180.727 263.078 180.577 262.991 180.426C261.957 180.372 260.89 180.562 259.92 180.27C247.177 176.379 234.333 172.747 221.73 168.449C200.197 161.091 178.482 154.288 156.673 147.841C147.786 145.205 139.115 142.12 130.657 138.361C124.644 135.669 118.538 133.207 112.47 130.724C105.722 127.931 98.8646 125.427 92.2394 122.413C82.6888 118.106 73.3006 113.431 63.8352 108.925L63.6754 108.692L63.7579 109.095C65.9649 107.971 67.9616 109.173 69.9313 109.765C82.2182 113.343 94.4436 117.031 106.669 120.72C112.608 122.502 118.576 124.292 124.46 126.281C135.569 129.988 146.622 133.903 157.738 137.581C162.964 139.298 168.291 140.757 173.595 142.179C175.374 142.655 177.25 143.476 179.603 142.518C176.827 140.789 174.1 140.059 171.405 139.21C163.973 136.837 156.463 134.634 149.094 132.025C130.834 125.607 112.566 119.219 93.8204 114.26C87.8339 112.656 81.8892 110.777 75.9583 108.965C75.0178 108.682 73.7826 108.668 73.5451 107.302C73.2307 107.409 72.9677 107.561 72.6396 107.6C72.4162 107.603 72.1654 107.473 71.9442 107.35C72.1993 107.228 72.4565 106.979 72.6719 107.005C72.9466 107.047 73.1953 107.304 73.4678 107.472C75.2365 107.629 77.0073 107.658 78.7363 107.963C84.8499 109.093 90.9476 110.282 97.0294 111.53C110.944 114.369 124.747 117.623 138.373 121.655C156.828 127.109 174.383 134.735 191.952 142.428C201.046 146.421 209.954 150.873 218.972 155.036C233.978 161.979 248.309 170.139 262.042 179.346C262.446 179.613 262.653 180.145 262.922 180.566ZM61.3928 361.176C61.1394 359.87 62.2133 359.3 62.9315 358.635C67.9829 353.889 73.048 349.211 78.1507 344.512C86.8901 336.435 95.6729 328.433 105.186 321.262C131.676 301.234 159.197 282.689 187.451 265.324C207.108 253.248 227.273 242.007 247.596 231.126C250.524 229.56 253.406 227.696 256.824 227.15C257.132 226.121 257.792 225.79 259.385 226.248C258.173 226.622 257.417 226.833 256.662 227.044C255.95 229.108 253.924 229.677 252.359 230.655C231.291 243.846 210.659 257.662 190.614 272.366C178.754 281.068 166.812 289.716 154.827 298.289C150.344 301.503 145.718 304.425 141.163 307.556C140.229 308.195 138.867 308.656 139.078 310.237C140.237 311.246 141.049 310.352 141.899 309.786C148.072 305.595 154.289 301.48 160.338 297.161C172.165 288.704 183.884 280.06 195.718 271.574C216.209 256.862 237.527 243.452 258.693 229.779C259.852 229.01 261.214 228.549 262.46 227.93C262.628 227.657 262.723 227.302 262.957 227.142C263.153 227.004 263.471 227.121 263.761 227.103C263.587 227.279 263.478 227.568 263.268 227.638C262.984 227.753 262.664 227.762 262.335 227.801C262.696 228.946 261.729 229.354 261.11 229.887C258.549 232.091 255.895 234.175 253.335 236.38C241.559 246.661 229.68 256.851 217.226 266.346C198.86 280.356 180.779 294.729 161.663 307.744C150.784 315.153 139.572 322.027 127.825 327.932C119.118 332.333 110.288 336.479 101.516 340.767C89.3819 346.695 77.234 352.556 65.5829 359.409C64.2222 360.219 62.9106 361.202 61.1933 361.091C61.1218 361.358 61.1451 361.745 60.9789 361.891C60.8206 362.008 60.4512 361.845 60.1766 361.803C60.2755 361.671 60.3232 361.493 60.4656 361.436C60.7503 361.322 61.0567 361.245 61.3335 361.16L61.3928 361.176ZM44.6284 231.343C47.0126 230.743 49.4127 230.084 51.8324 229.589C57.4032 228.477 62.9877 227.432 68.5802 226.358C70.1558 226.049 71.7371 225.838 73.3264 225.597C81.4132 224.46 89.5158 223.264 97.6301 222.262C106.99 221.117 116.345 220.225 125.71 219.177C138.058 217.784 150.428 216.43 162.755 215C170.331 214.108 177.924 213.156 185.487 212.197C190.051 211.641 194.601 211.018 199.442 210.377C197.918 208.953 196.522 209.182 195.113 209.344C184.338 210.555 173.593 211.773 162.81 213.013C155.406 213.856 147.999 214.826 140.581 215.602C132.641 216.428 124.646 216.986 116.692 217.745C103.423 219.018 90.2146 220.656 77.0551 222.943C67.0901 224.688 57.1091 226.492 47.1716 228.372C42.7217 229.212 38.2914 230.217 33.8257 231.117C38.8224 229.184 43.9529 227.7 49.1167 226.447C61.2077 223.525 73.3126 220.67 85.4745 217.957C96.053 215.582 106.659 213.342 117.293 211.236C126.014 209.507 134.833 208.249 143.519 206.415C156.045 203.768 168.631 201.486 181.417 200.592C192.229 199.837 203.004 198.626 213.84 198.607C221.655 198.605 229.46 198.282 237.298 198.191C249.544 198.01 261.804 197.896 274.056 197.812C274.696 197.793 275.36 198.161 276.19 198.384C275.699 200.095 274.85 201.011 273.291 201.26C268.208 202.09 263.104 202.882 258.036 203.779C249.294 205.344 240.537 206.968 231.831 208.637C220.646 210.786 209.532 213.145 198.349 215.167C188.204 216.991 178.024 218.71 167.826 220.138C157.994 221.506 148.059 222.307 138.206 223.637C124.1 225.543 109.92 226.54 95.7736 227.768C88.8792 228.366 81.9537 228.607 75.0572 229.332C65.0139 230.421 54.951 231.346 44.6284 231.343ZM25.9373 289.482C25.8584 289.302 25.7875 289.092 25.7087 288.913C29.3552 287.158 32.9801 285.366 36.678 283.657C49.5791 277.711 62.624 272.059 75.3595 265.783C96.2602 255.47 117.575 246.22 139.577 238.552C144.451 236.841 149.317 235.159 154.275 233.724C163.332 231.1 172.395 228.573 181.507 226.218C191.815 223.549 202.175 220.925 212.573 218.629C222.127 216.519 231.784 214.978 241.35 213.062C252.163 210.877 262.92 208.55 273.711 206.328C275.392 205.984 277.067 205.067 278.857 205.737C279.478 208.159 279.367 208.574 277.782 209.038C274.177 210.042 270.546 210.911 266.963 211.952C255.52 215.302 244.106 218.66 232.698 222.115C223.505 224.893 214.376 227.783 205.21 230.696C198.933 232.666 192.713 234.78 186.457 236.788C171.903 241.433 157.32 246.07 142.774 250.685C136.347 252.743 129.883 254.696 123.469 256.82C114.025 259.944 104.558 263.029 95.1622 266.325C83.2515 270.471 71.4117 274.826 59.5147 279.039C58.534 279.38 57.5041 279.549 56.488 279.785C61.1106 276.64 66.2554 274.747 71.3568 272.779C80.3159 269.335 89.3676 266.138 98.2479 262.514C106.664 259.083 115.227 256.168 123.869 253.433C136.41 249.424 148.962 245.609 161.517 241.668C162.176 241.463 163.29 241.571 163.415 239.921C160.608 239.963 158.131 240.792 155.632 241.583C146.646 244.417 137.695 247.355 128.66 250.016C119.108 252.825 109.721 256.09 100.418 259.633C92.7773 262.541 85.145 265.419 77.4614 268.252C68.4668 271.591 59.423 274.758 50.7792 278.922C45.8196 281.31 40.7732 283.547 35.713 285.717C32.482 287.106 29.1583 288.249 25.8701 289.496L25.9373 289.482ZM290.636 192.122C288.868 191.966 288.766 190.922 288.718 189.797C288.559 183.751 288.237 177.725 288.234 171.689C288.229 154.281 288.313 136.897 288.472 119.469C288.592 107.05 288.876 94.6109 289.13 82.1639C289.222 77.5512 289.471 72.9484 289.757 68.3241C290.152 62.1088 290.568 55.9311 291.09 49.718C291.639 43.163 292.277 36.6318 292.983 30.0868C293.182 28.3933 293.206 26.5256 294.711 24.7052C295.08 26.1702 295.457 27.2557 295.594 28.4041C295.966 31.045 296.212 33.6838 296.547 36.3464C297.081 40.3966 297.75 44.4194 298.188 48.4754C299.994 65.4449 301.77 82.4063 303.547 99.3678C304.926 112.475 304.995 125.612 303.547 138.724C302.924 144.369 302.025 149.973 301.305 155.625C299.801 167.642 297.213 179.432 294.507 191.19C294.388 191.634 294.64 192.591 293.361 192.503C293.494 190.823 293.662 189.248 293.763 187.687C294.672 175.638 295.612 163.597 296.484 151.57C296.713 148.582 296.785 145.583 295.997 142.005C294.574 145.658 294.669 148.86 294.392 152.026C293.376 164.236 292.3 176.431 291.216 188.656C291.129 189.808 290.76 190.948 290.496 192.053L290.636 192.122ZM230.742 26.941C231.68 27.8276 232.099 28.1621 232.396 28.5913C234.024 30.9333 235.622 33.2673 237.183 35.6231C246.648 49.8486 254.724 64.8768 262.364 80.1061C264.913 85.1726 267.477 90.3064 269.419 95.6232C275.281 111.678 279.701 128.141 282.714 144.989C283.992 152.193 284.66 159.423 284.544 166.73C284.541 167.809 284.217 168.898 283.998 170.427C283.588 169.587 283.385 169.278 283.278 168.964C278.94 153.031 274.609 137.068 270.248 121.098C269.638 118.87 269.066 116.62 268.284 114.441C267.949 113.557 267.09 112.851 265.683 111.108C266.122 113.735 266.225 115.128 266.568 116.459C269.415 127.291 272.329 138.109 275.176 148.941C277.716 158.547 280.277 168.191 282.78 177.819C282.955 178.47 283.507 179.253 282.538 180.264C281.838 178.964 281.133 177.918 280.735 176.795C278.917 171.607 277.212 166.354 275.461 161.152C273.817 156.264 272.277 151.341 270.52 146.518C267.951 139.509 265.24 132.557 262.529 125.605C258.813 116.001 254.992 106.433 251.276 96.8289C248.829 90.5509 246.39 84.2433 244.055 77.9003C241.252 70.2246 238.554 62.5135 235.818 54.824C232.769 46.2883 229.757 37.7309 226.737 29.2031C226.454 28.3648 226.208 27.5048 226.029 26.631C225.872 25.7948 225.819 24.9232 225.73 24.0732C228.674 29.0869 231.073 34.2402 233.698 39.2634C236.971 45.5403 240.417 51.7681 243.862 57.9959C244.114 58.4764 244.78 58.7183 245.228 59.0608C240.944 48.2567 235.187 38.3283 230.726 27.0003L230.742 26.941ZM322.007 414.204C320.933 409.914 319.665 405.636 318.86 401.291C316.183 386.979 313.514 372.637 311.107 358.27C309.107 346.172 307.205 334.068 305.765 321.898C303.675 304.09 301.951 286.221 301.196 268.295C300.775 258.367 300.585 248.405 300.321 238.488C300.273 236.887 300.234 235.256 301.144 232.927C301.673 235.102 302.104 236.456 302.341 237.822C303.128 242.353 303.975 246.9 304.619 251.488C306.502 265.206 308.28 278.96 310.037 292.676C310.945 299.717 311.585 306.813 312.523 313.862C314.843 331.286 317.288 348.713 319.645 366.116C319.837 367.533 319.806 368.954 319.901 370.378C319.992 371.577 320.084 372.777 320.183 373.947C318.281 369.785 317.717 365.25 315.762 361.169C316.035 370.104 318.6 378.669 319.517 387.459C320.455 396.287 322.348 404.989 321.993 414.137L322.007 414.204ZM317.552 198.127C318.236 195.928 319.285 195.097 320.842 194.974C330.211 194.15 339.574 193.228 348.979 192.508C368.167 191.074 387.324 191.538 406.439 193.579C406.87 193.631 407.259 193.957 408.292 194.488C399.741 196.644 391.737 198.184 383.623 198.71C371.569 199.482 359.506 199.808 347.506 201.325C345.596 201.576 343.614 201.267 341.668 201.063C334.611 200.252 327.57 199.382 320.522 198.541C319.69 198.446 318.836 198.312 317.581 198.135L317.552 198.127ZM553.371 101.859C552.732 102.228 552.346 102.601 551.913 102.675C542.591 103.798 533.277 104.892 523.963 105.986C531.42 102.933 539.198 101.524 547.123 100.756C549.113 100.559 551.372 100.307 553.4 101.867L553.371 101.859ZM241.38 251.123C241.918 250.537 242.093 249.409 243.322 249.801C242.805 250.425 242.587 251.479 241.38 251.123ZM275.622 180.825C275.622 180.825 275.462 180.591 275.434 180.457C275.442 180.427 275.533 180.325 275.608 180.281C275.673 180.394 275.768 180.515 275.796 180.649C275.788 180.679 275.697 180.781 275.651 180.833L275.622 180.825Z" fill="#2D2D2D"/>
</svg>
