<svg width="495" height="457" viewBox="0 0 495 457" fill="none" xmlns="http://www.w3.org/2000/svg">
<path d="M438.283 238.458C433.435 236.35 428.773 233.821 423.978 231.608C416.602 228.184 409.252 224.733 401.771 221.545C396.528 219.333 391.128 217.515 385.754 215.592C375.032 211.746 364.1 208.558 352.983 205.977C350.032 205.292 347.029 204.897 343.973 204.607C346.318 206.161 349.005 206.741 351.639 207.346C363.178 209.954 374.189 214.248 385.438 217.831C397.082 221.545 408.172 226.63 419.263 231.714C429.062 236.219 438.625 241.118 448.32 246.308C447.503 247.651 446.186 247.335 445.264 247.256C431.908 246.018 418.499 244.648 405.696 240.433C390.812 235.534 375.981 230.502 361.307 225.023C354.695 222.546 348.425 218.99 342.182 215.618C336.097 212.352 330.301 208.585 324.268 205.213C322.556 204.264 320.501 203.685 318.526 203.421C315.101 202.974 311.624 202.947 308.199 202.657C307.013 202.552 305.828 202.183 304.643 201.92C303.325 203.079 302.061 202.315 300.77 201.841C300.454 202.025 300.138 202.341 299.795 202.368C299.611 202.368 299.374 201.972 299.163 201.735C299.348 201.735 299.558 201.656 299.743 201.709C300.111 201.788 300.48 201.92 300.849 202.025C302.166 200.708 303.431 201.472 304.695 202.078C305.38 201.762 306.039 201.235 306.724 201.182C309.964 200.945 313.231 200.603 316.471 200.708C329.274 201.156 342.077 201.63 354.853 202.368C365.891 203 376.56 205.634 386.992 209.138C393.736 211.403 400.48 213.722 407.145 216.198C418.077 220.255 428.246 225.734 437.44 232.952C441.602 236.218 445.791 239.432 449.926 242.699C450.532 243.173 450.901 243.911 451.402 244.517C453.061 244.964 454.721 245.439 457.513 246.203C455.538 243.99 454.51 242.462 453.14 241.382C445.738 235.665 438.414 229.817 430.722 224.549C423.162 219.359 414.811 215.592 406.433 211.904C395 206.872 383.12 203.553 370.949 201.024C358.146 198.364 345.132 197.758 332.171 196.967C313.652 195.835 295.159 197.099 276.824 199.76C272.635 200.366 269.105 199.654 265.944 197.257C262.572 194.675 259.332 191.857 256.381 188.801C253.378 185.719 250.322 182.795 246.871 180.239C245.238 179.028 243.605 177.816 242.051 176.499C241.497 176.025 241.181 175.261 240.654 174.444C243.289 173.39 245.712 173.522 248.11 173.417C260.728 172.811 273.32 173.206 285.833 174.918C296.687 176.42 307.672 177.263 318.288 180.292C324.163 181.978 330.09 183.427 335.939 185.113C349.031 188.854 362.177 192.489 375.164 196.572C386.65 200.181 398.346 202.736 410.095 205.16C424.294 208.058 438.783 208.058 453.219 207.61C454.431 207.584 455.643 207.346 456.802 207.109C457.118 207.057 457.329 206.583 457.75 206.135C456.591 204.396 454.695 203.632 452.903 202.868C447.134 200.339 441.391 197.705 435.49 195.518C423.478 191.066 411.333 186.931 399.294 182.558C376.507 174.339 353.378 167.331 329.537 162.721C317.287 160.35 305.038 159.139 292.551 160.061C281.592 160.877 270.66 161.957 259.964 164.565C258.384 164.96 256.777 165.198 255.17 165.408C248.531 166.357 241.893 167.2 235.57 169.254C233.173 166.778 230.855 164.513 228.721 162.089C226.482 159.586 223.452 157.637 222.662 154.133C223.162 153.686 223.426 153.343 223.795 153.159C233.858 148.285 243.947 143.517 253.984 138.565C258.463 136.352 262.941 134.798 268.052 135.851C270.027 136.246 272.108 136.167 274.111 136.536C284.49 138.459 294.869 140.461 305.248 142.463C309.437 143.28 313.599 144.255 317.788 145.045C327.166 146.81 336.571 148.47 345.975 150.235C359.094 152.685 372.213 153.159 385.385 150.788C391.391 149.708 397.45 148.917 403.378 147.495C410.675 145.756 417.867 143.491 425.111 141.41C425.875 141.199 426.639 140.751 427.192 140.198C427.719 139.671 427.956 138.854 428.378 138.011C427.535 137.432 426.929 136.826 426.217 136.589C420.237 134.587 414.284 132.506 408.225 130.741C399.242 128.159 390.101 126.078 381.17 123.365C368.499 119.519 355.67 116.357 342.577 114.382C324.637 111.695 306.908 113.012 289.39 117.754C283.12 119.466 276.85 121.284 270.554 122.917C264.627 124.471 258.884 126.473 253.405 129.239C250.876 130.53 248.268 131.742 245.607 132.717C240.602 134.534 235.886 136.8 231.434 139.776C227.483 142.411 223.294 144.386 218.262 143.412C217.288 143.227 216.234 143.596 215.233 143.491C211.44 143.043 207.541 143.043 204.037 141.067C196.582 136.879 189.285 132.479 182.594 127.132C178.3 123.707 173.821 120.546 169.448 117.227C168.737 116.7 167.525 116.515 167.657 115.225C168.026 114.988 168.342 114.619 168.684 114.566C184.964 111.642 201.034 111.879 216.761 117.648C221.713 119.466 226.745 121.126 231.829 122.548C238.784 124.497 245.923 124.761 252.957 122.996C265.048 119.993 276.692 115.778 287.388 109.245C291.55 106.716 295.844 104.371 300.032 101.895C300.823 101.421 301.429 100.631 302.561 99.5769C301.271 99.1291 300.586 98.7602 299.848 98.6812C296.213 98.2334 292.577 97.9436 288.942 97.4431C275.243 95.52 261.545 93.7287 247.741 93.0175C246.95 92.9648 246.16 92.7013 245.37 92.5433C244.948 92.596 244.501 92.6486 244.896 92.596C244.527 92.5169 244.975 92.596 245.449 92.7277C246.213 90.8046 248.083 91.1471 249.532 90.8837C258.568 89.1977 267.393 86.9059 275.902 83.3495C278.51 82.2431 281.25 81.3475 283.989 80.5835C292.446 78.16 300.349 74.3929 308.331 70.8102C309.437 70.3097 310.491 69.6511 311.465 68.9399C312.019 68.5447 312.335 67.8335 313.125 66.7271C309.727 66.3583 306.934 66.1475 304.195 65.726C293.341 64.0137 282.488 62.3541 271.687 60.4047C255.433 57.4543 239.074 55.8737 222.53 56.2688C218.868 56.3479 215.207 56.2688 211.545 56.0054C197.846 55.0307 184.859 57.8494 172.32 63.1444C169.896 64.1718 167.367 64.9884 164.917 65.9631C160.597 67.7017 156.224 69.3877 151.982 71.3371C146.977 73.629 141.972 75.8418 136.44 76.5794C133.621 76.9745 130.855 77.6331 128.063 78.239C119.475 80.1093 111.15 80.3728 103.405 75.1832C101.561 73.9451 99.4274 73.1284 97.4516 72.1274C90.2071 68.4657 82.9364 64.804 75.6656 61.1423C73.3211 59.9569 71.0028 58.7978 68.026 57.3226C69.5539 56.743 70.4496 56.3215 71.3716 56.0317C79.5908 53.5818 87.968 51.9749 96.4242 50.7105C105.118 49.4196 113.837 49.1562 122.583 50.1572C137.336 51.8168 152.088 53.4501 166.946 53.8453C181.645 54.2404 196.213 53.4501 210.728 51.2373C219.869 49.8411 228.589 47.1541 236.782 42.9129C245.818 38.2502 254.695 33.2713 263.626 28.3978C264.074 28.1607 264.337 27.5285 264.68 27.1334C264.179 25.4474 262.941 25.5528 261.729 25.4474C252.219 24.6307 242.683 23.8668 233.173 22.9185C208.015 20.4159 182.831 19.9417 157.62 21.3642C138.416 22.4443 119.659 25.8162 101.693 32.9815C88.6265 38.1711 75.8237 43.8876 63.4159 50.4997C62.3358 51.0792 61.2558 51.6325 60.202 52.2384C58.8848 53.0023 57.5413 53.1077 56.1188 52.5808C51.7458 50.9475 47.3464 49.3406 42.9734 47.6547C42.3148 47.4176 41.3401 47.2595 41.5245 45.7053C42.9471 45.073 44.5277 44.2301 46.1873 43.5978C51.3243 41.6221 56.4876 39.7517 61.6246 37.8023C71.8458 33.8772 80.5654 27.5285 88.7583 20.4949C91.8141 17.8606 94.4221 14.6467 96.9247 11.4592C98.7951 9.08834 100.586 6.48039 100.718 3.29289C100.771 2.23915 100.165 1.13274 99.9015 0.105364C94.6856 1.0537 84.4906 4.42565 80.5128 6.50673C80.1967 6.66481 80.0123 7.11263 79.7752 7.42873L79.6961 7.27068C82.0934 7.90291 83.9374 6.2433 86.0976 5.79546C88.6265 5.29494 90.9184 3.58263 93.6845 4.42562C94.3694 2.87139 95.7393 2.76601 97.1618 2.81868C96.3715 3.81972 95.1948 4.31145 93.6318 4.2939C93.4474 6.03255 91.8668 6.37499 90.6813 7.00722C85.5444 9.77324 80.2493 12.3286 75.1914 15.2263C71.1872 17.5181 67.3938 20.2051 63.5476 22.7868C62.9681 23.1819 62.731 24.0776 62.3095 24.7362L62.2304 24.5517C66.3137 22.3389 70.3442 20.0734 74.4801 17.966C79.3536 15.4634 84.3063 13.1452 89.2061 10.669C91.498 9.50987 93.7108 8.24538 96.9511 6.53307C95.9237 8.29805 95.5285 9.19374 94.949 9.95769C85.7815 22.3653 73.9269 31.2429 59.5171 36.6959C53.6425 38.9087 47.6362 40.8054 41.6563 42.7811C40.9977 43.0182 40.2337 42.9656 38.7585 43.15C39.5488 41.7011 39.9176 40.7791 40.4708 40.0415C44.8438 34.4568 49.3749 29.0037 54.6172 24.1829C55.4602 23.3927 56.0398 22.2862 56.7247 21.3115L56.8037 21.4959C55.9344 21.9438 54.9596 22.2336 54.222 22.8395C51.8775 24.7625 49.5856 26.7646 47.3728 28.8457C42.4992 33.4294 37.6257 38.0131 35.0704 44.4408C34.9387 44.7833 34.5172 45.0203 34.0693 45.4945C33.2527 45.3628 32.2516 45.2838 31.3033 45.0467C25.4287 43.4924 19.6332 41.6221 13.7059 40.384C6.19801 38.8034 -1.3889 37.4862 -9.00215 36.5642C-13.2961 36.0373 -17.7745 35.3261 -22.0684 37.0384L-22.1738 36.854C-20.9884 37.012 -19.8029 37.3281 -18.6175 37.3018C-11.6628 37.1437 -4.8662 38.0921 1.85136 39.8044C6.38243 40.9372 10.9662 41.8592 15.4972 42.9393C18.8428 43.7295 22.1885 44.6515 25.5341 45.4945C28.6689 46.2848 31.8828 46.8907 34.965 47.8127C37.8628 48.682 40.7869 49.6304 43.474 50.9475C45.9502 52.1593 48.4792 53.5028 50.7974 56.7957C47.3728 55.6103 44.8965 54.7936 42.4202 53.9243C34.2011 50.9739 26.0346 47.839 17.3413 46.5219C15.5499 46.2584 13.7586 45.7316 12.0462 45.0994C1.66694 41.2796 -9.1075 39.4356 -20.119 39.0141C-21.1201 38.9878 -22.2002 39.0405 -23.1222 38.7507C-23.8071 38.5136 -24.334 37.776 -24.9135 37.2491L-24.8609 37.4072C-27.5216 36.775 -29.9451 36.854 -31.9736 39.62C-30.7354 40.1732 -29.8661 40.7791 -28.9177 40.9372C-25.3087 41.5694 -21.6997 42.1226 -18.0906 42.6231C-13.4542 43.2553 -8.65966 43.2553 -4.20763 44.5461C5.17064 47.2595 14.3908 50.4733 23.5583 53.8189C28.0894 55.4785 31.5404 58.8241 33.2527 63.4342C35.6499 69.9146 37.7574 76.5003 40.0229 83.0334C40.5762 84.6403 40.6289 86.221 39.9703 87.8015C37.7311 93.0438 35.7026 98.3651 33.1473 103.449C28.2211 113.302 23.9798 123.417 20.8713 133.981C16.4456 148.997 16.8935 163.617 24.0325 177.895C28.2211 186.272 31.8828 194.886 35.7817 203.395C36.2822 204.501 36.8617 205.582 37.494 206.609C37.6521 206.872 38.2053 207.057 38.5477 207.03C38.8902 207.004 39.338 206.714 39.4697 206.398C39.7332 205.871 39.8913 205.265 39.9703 204.659C41.6299 186.009 44.8965 167.595 47.7679 149.102C49.4539 138.249 51.0345 127.395 51.2453 116.384C51.6141 97.4431 48.8217 79.082 41.0767 61.6428C40.6816 60.7472 40.3918 59.7988 40.0756 58.9295C40.4444 58.6661 40.6025 58.4553 40.7606 58.4553C47.1884 58.8768 52.5625 61.4058 55.9871 66.9905C59.7015 73.0494 62.9944 79.3981 66.7088 85.457C68.0524 87.6435 68.79 89.8036 68.8163 92.3062C68.8427 100.868 68.2894 109.377 66.34 117.727C64.3643 126.236 62.1514 134.719 60.2547 143.227C57.2515 156.662 56.8037 170.255 58.9375 183.848C62.1778 204.554 69.791 223.837 78.7741 242.62C78.9585 243.015 79.7225 243.147 80.4601 243.516C80.8289 242.62 81.1977 241.909 81.3821 241.171C82.6466 235.823 83.8584 230.476 85.1229 225.128C88.047 212.852 90.655 200.524 92.4727 188.037C94.106 176.762 95.7656 165.514 96.1871 154.107C96.8457 136.879 95.0017 119.993 89.2851 103.634C87.3884 98.2597 85.2283 92.9911 82.2251 88.1176C80.6181 85.5097 78.9322 82.7173 76.0871 81.4792C73.0049 80.1357 71.4243 77.7648 69.9227 75.0778C68.7373 72.944 67.3147 70.9419 66.0766 68.8345C65.7078 68.2286 65.5761 67.4646 65.1809 66.3846C66.261 66.7007 66.8406 66.8061 67.3674 67.0432C78.7214 72.101 89.4169 78.318 99.8752 85.0618C106.145 89.1187 109.833 94.4927 110.887 101.763C111.914 108.797 112.968 115.857 113.705 122.917C114.496 130.398 114.601 137.959 115.655 145.388C116.472 151.13 115.471 156.373 112.994 161.325C106.435 174.418 103.115 188.511 101.166 202.815C99.322 216.303 98.6107 229.949 98.8478 243.568C98.9795 251.919 99.6908 260.191 101.693 268.357C104.617 280.291 109.043 291.618 114.786 302.445C119.738 311.797 124.322 321.333 128.168 331.212C128.537 332.134 129.037 333.029 129.696 333.767C129.907 334.004 130.75 333.741 131.487 333.662C131.54 331.317 131.487 329.104 131.645 326.891C132.857 309.663 133.911 292.408 135.386 275.206C136.861 257.767 137.309 240.302 137.941 222.836C138.363 211.456 138.284 200.076 137.336 188.696C136.493 178.501 134.569 168.543 131.171 158.902C130.117 155.872 128.774 152.816 126.956 150.182C125.507 148.048 124.585 145.993 124.506 143.491C124.48 142.674 124.375 141.858 124.296 141.067C123.005 126.078 121.767 111.062 117.288 96.5474C117.077 95.8625 117.156 95.0722 117.025 93.1228C121.582 96.6265 126.061 98.4441 129.749 101.605C134.543 105.688 139.101 110.035 144.475 113.407C148.057 115.646 150.007 118.965 151.087 123.207C153.8 133.665 155.512 144.307 158.015 154.792C159.438 160.825 158.911 166.436 157.277 172.178C156.83 173.733 156.355 175.287 155.829 176.841C152.984 185.113 150.376 193.437 148.294 201.973C146.082 211.087 144.554 220.281 143.79 229.633C141.84 254.185 144.659 278.367 149.875 302.313C152.773 315.617 156.171 328.841 159.359 342.091C159.596 343.04 160.044 343.935 160.386 344.857C162.467 343.962 162.546 343.962 162.414 343.013C161.703 337.534 161.519 332.081 162.309 326.602C165.26 305.659 168.21 284.743 171.055 263.773C173.663 244.622 175.533 225.418 175.296 206.056C175.165 194.386 173.61 182.847 169.554 171.915C167.393 166.093 166.392 160.219 165.786 154.16C165.022 146.257 163.995 138.38 161.492 130.793C161.308 130.24 160.57 129.292 161.703 128.818C167.42 132.796 173.084 136.694 178.695 140.698C180.512 141.989 182.251 143.438 183.858 144.992C187.256 148.312 189.706 152.052 190.075 157.11C191.076 170.282 192.367 183.427 193.526 196.598C193.605 197.6 193.684 198.68 193.447 199.628C191.998 205.344 190.602 211.061 188.863 216.698C187.546 220.966 185.649 225.049 184.121 229.264C179.169 242.673 175.27 256.292 174.085 270.623C172.662 287.825 173.979 304.737 178.458 321.412C181.329 332.028 184.148 342.645 187.125 353.208C188.732 358.872 190.602 364.483 192.446 370.094C193.026 371.833 193.842 373.466 194.685 375.099C194.922 375.547 195.871 376.1 196.081 375.969C196.661 375.6 197.24 374.941 197.451 374.283C197.688 373.545 197.504 372.676 197.583 371.859C199.164 353.63 200.718 335.4 202.351 317.197C202.43 316.196 202.983 315.248 203.51 313.694C204.59 319.594 205.275 324.837 206.513 329.947C208.937 339.826 211.545 349.652 214.311 359.452C216.656 367.697 220.265 375.468 224.032 383.134C224.927 384.952 226.06 386.638 227.246 388.297C227.509 388.666 228.378 388.877 228.853 388.745C229.327 388.613 230.012 387.981 230.012 387.56C230.17 384.715 230.196 381.869 230.196 379.024C230.117 363.113 231.724 347.36 234.174 331.686C235.781 321.438 237.836 311.27 239.258 300.996C243.447 270.517 245.528 239.933 243.078 209.164C242.498 201.841 241.655 194.596 239.785 187.484C239.495 186.377 239.337 185.245 239.126 184.033C239.838 184.059 240.338 183.927 240.602 184.112C245.317 187.958 250.085 191.778 254.643 195.808C256.276 197.257 257.62 199.18 258.621 201.103C260.517 204.712 262.493 208.269 265.259 211.298C266.445 212.589 266.892 213.985 266.497 215.75C265.496 219.912 264.653 224.074 263.652 228.237C261.018 239.353 256.987 250.022 253.563 260.876C251.297 268.041 249.032 275.285 247.793 282.688C244.58 301.813 243.947 321.122 245.976 340.432C247.793 357.634 251.244 374.599 254.432 391.59C254.616 392.591 254.853 393.619 255.328 394.488C255.696 395.12 256.46 395.858 257.093 395.91C257.699 395.963 258.673 395.304 258.937 394.725C260.017 392.328 261.071 389.878 261.835 387.349C264.39 378.761 266.945 370.199 269.237 361.533C270.633 356.238 271.845 350.864 272.688 345.437C274.163 336.006 275.559 326.549 276.56 317.039C278.589 298.019 279.959 278.973 278.694 259.822C277.772 245.807 276.481 231.846 273.057 218.173C272.609 216.356 272.609 216.329 273.294 213.616C277.219 215.961 280.117 219.359 283.146 222.625C286.597 226.34 290.18 229.975 293.631 233.69C296.134 236.377 298.584 239.09 300.928 241.882C301.692 242.778 302.324 243.937 302.561 245.07C304.827 255.291 305.986 265.644 303.747 275.944C301.271 287.271 298.452 298.52 294.579 309.479C290.338 321.412 287.414 333.688 285.544 346.175C283.436 360.374 284.463 374.599 287.756 388.587C291.128 402.839 294.816 417.011 298.399 431.21C298.584 431.948 299.058 432.606 299.506 433.581C301.824 431.21 302.799 428.549 303.615 425.862C306.355 417.117 308.937 408.344 310.649 399.335C313.573 383.951 316.444 368.566 317.261 352.892C318.236 334.61 318.815 316.328 316.313 298.098C315.233 290.248 314.6 282.319 313.599 274.469C313.02 269.832 312.15 265.222 311.281 260.639C311.123 259.743 310.359 258.979 309.859 258.136L310.043 258.057C310.043 259.453 309.911 260.849 310.043 262.219C310.464 266.856 310.991 271.492 311.465 276.155C312.308 284.848 313.072 293.541 313.968 302.208C314.758 309.9 315.127 317.592 314.837 325.311C314.232 340.722 313.942 356.159 311.755 371.464C310.017 383.714 308.146 395.963 305.933 408.134C304.88 414.034 302.904 419.751 300.638 425.467C300.559 424.493 300.349 423.518 300.375 422.543C300.612 417.696 301.007 412.823 301.139 407.975C301.376 398.255 301.481 388.508 301.613 378.787C301.613 378.471 301.218 378.155 301.007 377.839L301.192 377.786C299.769 382.317 300.164 387.033 300.006 391.669C299.743 399.361 299.69 407.08 299.479 414.772C299.479 415.72 299.163 416.642 298.768 418.908C298.004 416.484 297.609 415.352 297.319 414.219C295.159 405.552 293.13 396.859 290.812 388.245C286.808 373.229 286.94 358.134 289.785 343.013C292.182 330.237 295.396 317.671 300.059 305.475C301.508 301.707 302.219 297.651 303.246 293.752C303.984 291.012 304.695 288.246 305.459 285.533C307.619 277.867 308.884 270.096 308.094 262.087C307.804 259.269 307.672 256.424 307.488 253.605C307.435 252.683 307.382 251.761 307.356 250.839L307.171 250.444L307.171 250.918C308.462 251.761 307.777 252.736 307.33 253.684C308.12 254.264 308.884 254.843 309.674 255.423L309.463 255.475C310.201 254.896 310.754 254.817 310.833 255.976L310.728 255.765C313.81 258.689 314.653 262.772 316.234 266.46C318.078 270.754 319.685 275.154 321.344 279.527C323.583 285.427 325.823 291.302 327.983 297.229C330.117 303.025 330.907 308.978 330.828 315.169C330.564 333.688 331.539 352.128 335.306 370.358C338.046 383.555 341.813 396.411 347.819 408.502C350.981 414.877 354.353 421.147 357.646 427.443C357.988 428.102 358.541 428.681 359.279 429.682C359.7 428.47 360.095 427.759 360.174 426.995C361.465 413.007 361.65 399.019 360.043 385.031C357.988 367.17 354.432 349.652 347.793 332.924C343.736 322.677 340.364 312.271 337.466 301.681C336.782 299.152 335.991 296.571 334.911 294.2C331.855 287.561 328.615 281.002 325.454 274.39C323.873 271.097 322.319 267.778 320.738 264.485L320.607 264.142L320.554 264.564C322.74 265.17 323.689 267.119 324.795 268.726C333.014 280.58 341.418 292.329 349.242 304.421C358.647 318.909 367.445 333.793 376.744 348.335C378.799 351.575 379.827 354.815 380.143 358.53C380.828 366.617 381.671 374.704 382.435 382.791C383.357 392.222 386.175 401.047 390.917 409.293C397.292 420.409 404.273 431.157 411.834 441.484C415.311 446.226 419.026 450.809 422.74 455.393C423.425 456.262 424.084 457.553 425.691 457.053C427.06 455.393 425.111 454.076 425.19 452.574L425.295 452.732C424.9 452.074 424.848 451.521 425.796 451.336L425.612 451.389C425.506 450.546 425.374 449.677 425.269 448.834L425.453 448.702C424.716 449.387 424.4 448.807 424.057 448.254L424.163 448.438C422.845 445.251 421.476 442.09 420.237 438.876C418.631 434.714 417.261 430.446 415.522 426.337C412.572 419.408 409.331 412.612 406.381 405.71C401.744 394.857 397.24 383.977 392.63 373.124C392.103 371.885 392.024 370.279 390.39 369.725L390.522 369.673C389.943 373.519 392.076 376.654 393.341 379.973C395.422 385.452 397.687 390.879 399.979 396.279C404.326 406.527 408.857 416.695 413.072 426.995C415.285 432.422 417.05 438.007 418.973 443.565C419.131 444.039 418.789 444.698 418.683 445.277C418.92 445.462 419.131 445.672 419.368 445.857C418.367 446.305 418.815 445.593 418.841 445.198C416.971 444.909 416.365 443.249 415.443 441.984C406.697 429.761 398.847 417.011 392.155 403.55C391.339 401.917 390.68 400.231 390.022 398.518C387.888 392.986 386.755 387.27 386.123 381.395C385.306 373.729 384.331 366.116 383.304 358.477C382.882 355.289 381.934 352.418 379.827 349.626C377.324 346.306 375.981 342.118 374.136 338.324C373.899 337.797 373.689 337.271 373.452 336.744C372.74 336.428 372.398 335.953 372.74 335.163C371.897 334.873 371.555 334.399 372.029 333.53C370.264 333.451 369.79 331.949 369.079 330.79C365.838 325.627 362.703 320.411 359.411 315.274C355.564 309.294 351.56 303.42 347.661 297.493C339.39 284.953 330.802 272.598 321.739 260.612C321.318 260.059 321.054 259.348 320.396 258.057C323.452 258.926 324.637 260.902 325.928 262.614C329.985 267.936 333.936 273.362 337.888 278.763C339.205 280.554 340.549 282.372 341.602 284.321C345.369 291.17 351.165 295.701 357.962 299.258C365.865 303.393 373.583 307.898 381.486 312.06C400.533 322.044 417.34 335.005 432.803 349.836C446.159 362.639 458.277 376.601 470.448 390.484C471.344 391.511 472.661 392.354 472.371 394.04C473.451 394.224 474.241 394.699 474.294 395.937C474.426 396.068 474.531 396.174 474.663 396.305C474.61 396.147 474.558 396.016 474.505 395.858C473.477 395.621 472.345 395.489 472.529 393.987C470.132 393.592 468.762 391.669 467.155 390.168C461.781 385.215 456.512 380.105 451.086 375.178C445.211 369.857 439.152 364.72 433.225 359.452C423.03 350.416 412.888 341.301 402.64 332.344C393.156 324.046 383.251 316.275 371.766 309.373C372.108 310.322 372.161 310.769 372.371 311.086C372.582 311.428 372.925 311.665 373.241 311.929C373.715 312.324 374.189 312.693 374.69 313.035C387.756 321.728 399.453 332.16 411.465 342.223C416.76 346.649 421.581 351.654 426.718 356.264C438.651 367.012 450.664 377.681 462.624 388.429C464.073 389.72 465.364 391.195 467.26 393.171C464.073 392.96 462.123 391.827 460.279 390.615C455.169 387.296 450.006 384.03 445.053 380.473C438.467 375.732 432.066 370.674 425.559 365.8C411.386 355.131 398.162 343.435 385.728 330.79C376.744 321.649 367.709 312.561 358.673 303.472C358.12 302.893 357.461 302.392 356.776 301.997C356.513 301.839 355.933 301.971 355.696 302.182C355.433 302.392 355.169 302.972 355.275 303.209C355.933 304.447 356.644 305.659 357.408 306.818C363.099 315.248 367.84 324.231 371.818 333.583C372.055 334.136 372.292 334.663 372.503 335.216C372.74 335.743 372.977 336.27 373.188 336.796C374.005 337.086 374.268 337.587 373.873 338.377C374.742 339.141 375.77 339.8 376.455 340.695C377.798 342.46 378.957 344.383 380.248 346.201C380.696 346.833 381.328 347.334 382.356 346.543C381.908 345.7 381.434 344.805 380.986 343.935C377.061 336.638 373.083 329.341 369.184 321.992C368.552 320.806 367.445 319.647 368.288 318.093L367.919 317.908L368.13 318.172C369.368 319.226 370.659 320.2 371.792 321.333C376.27 325.759 380.643 330.316 385.174 334.715C393.789 343.066 402.324 351.522 411.966 358.714C424.347 367.96 436.913 376.943 449.4 386.058C455.327 390.378 461.649 394.066 468.367 397.043C471.133 398.281 474.057 399.151 476.981 400.02C477.903 400.31 479.01 400.073 479.326 398.492C478.535 397.517 477.666 396.411 476.744 395.331C468.051 385.373 459.384 375.389 450.664 365.458C431.091 343.092 409.094 323.704 382.698 309.637C375.348 305.712 368.077 301.628 360.754 297.624C354.537 296.254 350.506 292.277 347.609 286.876C347.134 285.981 346.371 285.269 345.765 284.453C340.575 277.419 335.412 270.359 330.169 263.352C327.983 260.428 325.559 257.688 323.294 254.817C322.714 254.105 322.24 253.315 321.476 252.182C322.635 252.182 323.241 252.103 323.794 252.209C328.984 253.263 334.174 254.211 339.31 255.475C343.683 256.529 347.688 258.268 351.218 261.323C356.434 265.854 362.019 269.938 367.366 274.311C371.634 277.788 376.086 281.133 381.197 283.136C389.732 286.428 398.293 289.774 407.092 292.171C418.657 295.332 430.485 297.519 442.155 300.206C453.852 302.893 465.574 305.448 476.981 309.242C480.063 310.269 482.987 311.691 486.017 312.877C488.467 313.852 490.917 314.8 493.419 315.617C493.762 315.722 494.473 315.116 494.842 314.695C495.026 314.484 494.921 313.904 494.789 313.535C494.684 313.167 494.473 312.772 494.183 312.508C488.836 307.239 483.593 301.813 477.008 297.967C474.373 296.439 471.818 294.753 469.289 293.041C458.014 285.348 446.212 278.552 433.646 273.204C428.404 270.965 423.162 268.726 417.972 266.408C409.753 262.693 401.218 260.085 392.366 258.557C382.962 256.924 373.478 255.765 364.021 254.343C357.988 253.421 351.955 252.499 346.529 249.337C345.317 248.626 343.894 248.284 342.551 247.783C334.753 244.754 326.692 242.646 318.341 241.777C315.628 241.487 313.283 240.644 311.228 238.721C306.934 234.691 302.377 230.95 298.162 226.84C291.761 220.597 285.544 214.169 279.247 207.821C278.563 207.109 277.693 206.477 278.431 205.344C278.852 205.265 279.221 205.134 279.616 205.107C290.206 204.343 300.744 205.687 311.281 206.161C317.683 206.451 323.742 207.794 329.116 211.588C330.591 212.641 332.303 213.379 333.884 214.327C346.002 221.519 358.62 227.578 372.029 231.925C373.952 232.557 375.875 233.242 377.746 234.032C389.205 238.826 400.954 242.778 412.94 246.071C425.032 249.416 437.282 250.681 449.742 250.365C451.56 250.312 453.404 250.101 455.195 249.812C455.906 249.68 456.539 249.127 457.566 248.573C455.643 247.809 454.089 247.309 452.693 246.545C452.113 246.229 451.876 245.307 451.507 244.675C446.634 243.674 442.656 240.644 438.204 238.695L438.283 238.458ZM253.115 133.955C253.352 133.112 253.879 132.875 254.669 133.191C255.591 132.453 256.408 131.478 257.461 131.057C262.361 129.107 267.261 127.158 272.293 125.525C278.273 123.575 284.358 121.863 290.443 120.283C307.935 115.673 325.665 114.461 343.578 117.095C354.827 118.755 365.865 121.521 376.823 124.655C384.252 126.763 391.628 129.002 399.11 130.952C404.616 132.374 410.174 133.507 415.733 134.64C418.92 135.298 422.002 136.115 425.559 137.88C424.347 138.117 423.846 138.354 423.399 138.275C418.025 137.274 412.677 135.904 407.276 135.219C390.153 133.059 373.03 130.925 355.854 129.239C342.524 127.922 329.142 127.237 315.786 126.421C314.311 126.341 312.598 125.472 311.228 126.921L311.149 126.737C312.756 127 314.337 127.343 315.944 127.501C327.272 128.607 338.626 129.397 349.874 130.846C362.967 132.532 375.954 134.903 389.047 136.747C396.897 137.853 404.774 138.512 412.651 139.381C414.02 139.539 415.39 139.671 417.313 139.882C416.339 140.646 415.97 141.094 415.469 141.304C414.521 141.673 413.546 141.989 412.572 142.2C394.316 146.231 376.033 150.261 357.119 148.654C355.301 148.496 353.457 148.417 351.666 148.048C335.306 144.861 318.842 142.411 302.64 138.38C290.022 135.245 277.193 132.98 264.153 132.4C262.361 132.321 260.544 132.664 258.752 132.796C257.382 132.901 256.013 132.98 254.616 133.059C254.406 133.955 253.879 134.192 253.062 133.823C252.851 134.692 252.351 134.956 251.534 134.587C251.323 135.483 250.797 135.693 249.98 135.351C249.611 135.799 249.321 136.405 248.847 136.642C244.158 138.986 239.469 141.331 234.727 143.596C229.643 146.02 224.98 149.286 219.606 151.13C217.92 151.71 217.446 153.475 218.315 155.187C218.921 156.452 219.606 157.795 220.607 158.691C224.137 161.799 226.482 165.777 229.169 169.544L229.432 169.913L229.353 169.439C226.877 168.78 225.217 166.91 223.373 165.382C215.391 158.77 207.383 152.21 198.452 146.889C195.133 144.913 191.761 143.017 188.547 140.936C180.196 135.509 172.346 129.371 164.97 122.706C159.543 117.78 153.879 113.223 147.662 109.297C141.84 105.609 136.255 101.579 130.829 97.285C125.428 93.0174 119.159 90.0143 112.836 87.2483C110.808 86.3526 108.832 85.2989 106.909 84.1925C95.5812 77.8438 84.2799 71.4425 72.8995 65.1465C70.9501 64.0664 68.79 63.4078 66.7088 62.6175C62.731 61.116 58.7531 59.6408 54.1957 57.9548C56.3559 55.8737 58.2789 54.8727 60.7816 55.1098C61.3611 54.8727 61.9144 54.6092 62.4939 54.3722C62.9944 54.0824 63.4949 53.8189 63.9955 53.5292C64.496 53.2657 64.9965 53.0286 65.4971 52.7652C66.6298 51.9486 67.6835 50.9739 68.8953 50.368C85.3073 42.1489 102.325 35.5105 120.054 30.7951C135.623 26.6329 151.587 25.0259 167.657 24.3147C195.923 23.0502 224.084 24.7362 252.166 27.6076C253.747 27.7656 255.328 27.95 257.014 28.1344C256.724 29.7413 255.565 29.6096 254.748 29.6623C241.155 30.1628 227.562 30.3999 213.995 31.2165C207.33 31.6117 200.691 32.6654 193.974 32.5864C186.861 32.5337 179.775 32.5864 172.662 32.5337C153.142 32.3493 133.726 33.7982 114.364 36.1691C112.362 36.4061 110.334 36.7223 108.358 37.1701C107.673 37.3282 107.146 38.0394 106.54 38.5136L106.487 38.3555C107.278 38.3555 108.094 38.5136 108.858 38.3819C126.904 35.4578 145.107 34.2723 163.363 34.2987C170.66 34.2987 177.957 34.6148 185.228 34.8519C194.132 35.1417 203.062 35.6159 211.914 34.167C213.31 33.9299 214.732 33.9826 216.155 33.9562C226.903 33.7718 237.625 33.2713 248.294 31.8751C249.005 31.7697 249.796 32.1913 250.56 32.3493L251.244 31.9541C251.244 31.9541 251.113 32.3229 251.034 32.3229C250.876 32.3229 250.665 32.2439 250.507 32.2176C250.375 34.0089 248.821 34.4568 247.609 34.9836C240.944 37.934 234.279 40.9371 227.483 43.5451C215.207 48.2342 202.246 49.4196 189.258 50.0782C169.158 51.1319 149.137 50.3943 129.195 47.4176C118.289 45.7843 107.383 45.7052 96.5032 47.5756C87.125 49.1825 77.7467 50.8949 68.3421 52.5018C67.3938 52.6598 66.3664 52.5281 65.3916 52.5545C64.8911 52.8179 64.3906 53.0813 63.8901 53.3184C63.3896 53.6082 62.8891 53.8716 62.3622 54.1614C61.7826 54.4248 61.2294 54.6619 60.6762 54.9253C60.4655 56.5059 60.9396 57.6124 62.5729 58.2446C66.182 59.5881 69.7383 61.0633 73.3474 62.4858C80.9343 65.4889 87.8362 69.7828 94.9753 73.6553C98.0048 75.3149 101.008 77.0009 104.116 78.5024C107.963 80.3465 111.835 82.1641 116.287 81.927C117.025 81.9007 117.789 82.4275 118.526 82.7173C118.605 82.5593 118.711 82.4012 118.79 82.2431C118.658 82.3485 118.553 82.4275 118.421 82.5329C118.105 83.4549 117.789 84.3769 117.42 85.4307C121.951 88.6181 126.298 91.5949 130.539 94.7034C138.6 100.604 147.109 105.715 156.145 109.956C158.331 110.983 160.36 111.352 162.572 110.43C166.972 108.613 171.635 108.217 176.324 108.086C182.883 107.901 189.39 106.927 195.554 105.004C202.694 102.764 210.096 101.421 217.13 98.8656C223.478 96.5738 230.038 95.441 236.808 95.1512C245.37 94.8088 253.852 95.0195 262.335 96.1523C272.978 97.5748 283.673 98.4178 294.237 100.657C294.158 101.842 293.236 101.79 292.577 101.79C281.803 102 271.055 102.685 260.438 104.714C246.239 107.453 231.856 108.586 217.472 109.851C215.47 110.035 213.389 109.745 211.519 110.904C212.256 112.143 213.31 111.352 214.153 111.326C227.983 111.062 241.708 109.614 255.407 107.559C264.047 106.268 272.793 105.767 281.487 104.951C282.83 104.819 284.2 104.951 285.544 104.951C285.939 106.742 284.701 107.032 283.963 107.374C279.195 109.614 274.427 111.984 269.527 113.881C264.416 115.857 259.147 117.464 253.905 119.071C247.135 121.126 240.312 121.099 233.41 119.571C228.01 118.386 222.873 116.647 217.762 114.619C209.385 111.3 200.481 110.061 191.524 109.693C182.33 109.324 173.268 110.562 164.285 112.301C163.89 112.38 163.495 112.485 163.126 112.617C162.098 112.959 161.73 114.408 162.572 115.067C164.179 116.305 165.865 117.438 167.472 118.676C173.452 123.207 179.327 127.922 185.439 132.295C193.526 138.09 201.824 143.596 210.017 149.26C212.045 150.656 213.969 151.13 216.155 149.497C217.261 148.68 218.658 148.18 220.001 147.785C225.481 146.099 230.565 143.596 235.596 140.883C239.522 138.775 243.71 137.195 247.846 135.456C248.505 135.193 249.374 135.403 250.164 135.403C250.375 134.508 250.902 134.297 251.719 134.64C251.929 133.797 252.456 133.559 253.273 133.876L253.115 133.955ZM321.766 272.414C322.029 272.941 322.266 273.441 322.53 273.968C328.404 284.005 333.357 294.437 335.991 305.843C337.914 314.194 340.47 322.308 343.499 330.316C353.167 355.816 358.778 382.159 359.411 409.477C359.49 412.454 359.7 415.483 358.673 419.277C358.067 417.459 357.566 416.432 357.382 415.352C356.644 411.137 355.907 406.948 355.327 402.707C353.694 390.8 351.139 379.077 348.399 367.407C345.765 356.106 343.157 344.831 340.443 333.556C340.022 331.844 339.152 330.237 338.494 328.577L338.678 328.498C338.626 329.104 338.388 329.737 338.52 330.29C340.18 338.219 341.892 346.148 343.604 354.078C343.736 354.683 343.947 355.237 344.079 355.843C348.373 375.047 352.983 394.172 354.879 413.824C354.932 414.351 354.774 414.877 354.59 416.353C351.534 411.058 349.321 406.342 347.293 401.521C340.338 385.083 337.335 367.723 335.359 350.126C334.226 339.826 334.2 329.473 334.253 319.147C334.253 318.356 334.595 317.566 334.779 316.776L334.858 316.986C334.7 316.012 334.358 315.037 334.384 314.089C334.516 308.952 333.199 304.078 331.513 299.337C329.089 292.514 326.402 285.77 323.873 278.973C323.267 277.34 321.897 275.839 322.714 273.863C322.451 273.362 322.214 272.835 321.95 272.335C321.687 271.782 321.397 271.228 321.134 270.702C320.87 270.175 320.607 269.674 320.317 269.147C320.08 268.621 319.816 268.094 319.579 267.567L319.369 267.382L319.369 267.672C319.632 268.199 319.895 268.726 320.132 269.253C320.396 269.753 320.659 270.28 320.949 270.807C321.213 271.36 321.502 271.913 321.766 272.467L321.766 272.414ZM34.4909 191.725C33.964 191.145 33.2264 190.671 32.9102 189.986C29.9334 183.954 26.9303 177.974 24.1379 171.862C19.5805 161.826 19.2644 151.499 21.9777 140.857C24.9545 129.16 29.3275 118.043 34.7806 107.295C38.2053 100.578 41.5245 93.8341 43.5793 86.537C45.4234 86.8795 45.1073 88.302 45.318 89.3294C47.8733 101.816 47.7943 114.408 46.3454 126.974C45.2126 136.879 43.6583 146.705 42.3412 156.583C41.0767 166.251 39.8913 175.946 38.6794 185.613C38.5741 186.377 38.3633 187.141 37.8628 189.381C37.3096 186.773 36.9935 185.561 36.8354 184.323C34.965 170.914 36.0714 157.532 37.7574 144.202C38.8111 135.93 40.0756 127.711 41.103 119.44C41.4718 116.463 41.4718 113.407 40.9187 110.167C40.6289 110.72 40.3128 111.247 40.102 111.826C39.8913 112.406 39.7332 113.012 39.6805 113.591C37.7574 129.318 35.7817 145.045 33.964 160.798C33.0156 169.096 33.0156 177.421 34.0167 185.745C34.2537 187.747 34.2274 189.776 34.3064 191.778C34.5699 192.331 34.8333 192.858 35.1231 193.411C35.3865 193.912 35.65 194.438 35.9134 194.939L36.6247 196.493C36.7564 196.704 36.8618 196.915 36.9672 197.125C36.8618 197.046 36.7037 196.994 36.6774 196.888C36.6774 196.73 36.73 196.572 36.7827 196.388C36.5456 195.861 36.3349 195.334 36.0978 194.834C35.8344 194.333 35.5709 193.806 35.3338 193.306C35.0441 192.752 34.7806 192.226 34.4909 191.672L34.4909 191.725ZM134.464 80.1093C133.568 80.241 132.699 80.3991 131.803 80.5308C131.382 80.6625 130.934 80.8206 131.329 80.6889C130.934 80.6625 131.408 80.6889 131.909 80.7416C132.804 80.5835 133.674 80.4518 134.569 80.2937C135.465 80.1884 136.387 80.083 137.283 79.9776C137.704 79.8723 138.126 79.7932 137.968 79.8196C138.126 79.8196 137.678 79.8196 137.204 79.7932C136.308 79.8986 135.386 80.004 134.49 80.1357L134.464 80.1093ZM43.6583 80.7679C43.6583 80.7679 43.5793 81.1104 43.5266 81.2684C43.3422 81.1104 42.9998 80.926 42.9998 80.7679C42.9998 80.4254 43.2105 80.1094 43.3159 79.7669C41.6299 78.7395 41.2875 77.317 42.1041 75.5784C40.1283 74.1031 39.6015 72.1537 40.1283 69.8092C39.7068 69.4404 39.0746 69.1506 38.8639 68.6764C37.1515 64.804 35.5182 60.8789 33.8586 56.9801C34.4645 55.9791 35.3602 56.2952 35.729 56.9274C37.9418 60.9579 40.1283 65.0148 40.0756 69.8355C42.1041 71.3107 42.2622 73.3918 41.946 75.631C43.3422 76.7638 43.3686 78.2653 43.1051 79.8459C43.2896 80.1357 43.5003 80.4254 43.632 80.7679L43.6583 80.7679ZM284.147 216.962L284.068 216.672C282.04 215.355 279.959 214.169 278.009 212.72C274.427 210.086 270.949 207.294 267.393 204.607C264.574 202.499 264.495 202.473 262.124 198.074C263.758 198.943 264.917 199.47 265.997 200.102C268.631 201.604 271.476 202.842 273.768 204.739C276.06 206.635 277.851 209.19 279.801 211.509C281.223 213.195 282.54 214.986 283.91 216.725L284.147 216.962ZM162.52 158.796C162.52 158.796 162.256 158.743 162.23 158.664C162.151 158.506 162.151 158.322 162.098 158.138C161.65 156.82 161.097 155.53 160.781 154.186C158.489 144.334 156.276 134.481 154.037 124.629C153.879 123.918 153.431 123.101 154.248 122.416C155.881 122.258 156.118 123.707 156.566 124.656C158.832 129.661 160.333 134.929 161.15 140.33C161.914 145.308 162.283 150.366 162.678 155.398C162.757 156.32 162.177 157.295 161.888 158.243C162.098 158.427 162.309 158.612 162.493 158.77L162.52 158.796ZM219.975 94.6507C216.313 95.8362 212.599 96.9162 208.911 98.049C207.751 98.3915 206.461 98.5231 205.433 99.1027C200.718 101.79 195.344 101.921 190.259 103.107C185.307 104.266 180.302 104.925 175.191 105.241C171.16 105.478 167.13 106.163 163.178 106.979C161.229 107.374 159.648 107.164 157.91 106.321C151.693 103.318 145.265 100.71 139.232 97.3641C134.122 94.519 129.432 90.8837 124.612 87.5381C124.375 87.38 124.375 86.8268 124.19 86.1946C126.429 85.8785 128.642 85.6677 130.802 85.2463C138.784 83.7974 146.766 82.2958 154.749 80.7679C157.014 80.3464 159.042 79.4771 160.281 77.3696C154.88 78.0546 149.48 78.7659 143.921 79.4771C143.921 77.8438 145.133 77.8175 145.871 77.5277C153.8 74.3929 161.361 70.3624 169.633 68.0705C170.792 67.7544 171.924 67.2276 173.031 66.7007C185.57 60.7208 198.847 58.4553 212.678 58.8241C224.032 59.1139 235.438 58.587 246.74 60.0886C253.984 61.0369 261.229 62.0379 268.447 63.118C279.089 64.6986 289.6 67.0168 300.375 67.7808C301.56 67.8598 302.693 68.2813 303.721 68.5184C304.142 70.0199 303.088 70.178 302.456 70.257C300.665 70.4678 298.821 70.5995 297.029 70.5731C290.522 70.4151 284.042 70.1253 277.562 69.9936C268.42 69.8092 259.306 69.7301 250.164 69.5458C244.685 69.4404 239.206 69.256 233.726 69.0452C217.103 68.3603 200.454 67.4646 183.832 69.0979C180.038 69.4667 176.113 69.3087 172.636 71.3371L172.557 71.179C173.927 71.3634 175.323 71.8376 176.666 71.7059C197.557 69.5194 218.421 70.4414 239.285 72.022C241.313 72.1801 243.341 72.2591 245.37 72.1801C255.328 71.8113 265.259 72.0483 275.191 72.3908C280.459 72.5752 285.728 72.2064 291.023 72.2064C292.366 72.2064 293.842 71.5215 295.37 72.944C294.237 73.4972 293.289 74.1294 292.235 74.4719C282.619 77.6857 273.057 81.1894 263.31 83.9554C255.117 86.3 246.766 88.223 238.363 89.5138C225.981 91.4105 213.679 90.3041 201.692 86.379C195.897 84.4823 190.154 82.4802 184.306 80.7416C178.273 78.9502 172.162 77.4487 166.103 75.789C163.758 75.1568 161.65 75.3412 160.123 77.475C175.27 80.5045 189.864 85.4833 204.59 89.9617C209.464 91.4369 214.39 92.4906 219.474 92.754C220.265 92.8067 221.002 93.1755 221.792 93.4126C222.161 93.2809 222.504 93.1228 222.873 93.0438C222.952 93.0438 223.11 93.2546 223.241 93.3599C222.741 93.3072 222.24 93.2809 221.74 93.2282C221.187 93.7024 220.686 94.4136 220.028 94.6244L219.975 94.6507ZM470.817 297.967C469.263 298.388 468.762 297.598 468.261 296.781C464.626 295.438 460.991 294.173 457.382 292.777C451.902 290.617 446.449 288.325 440.97 286.191C426.771 280.607 412.677 274.758 398.32 269.622C386.65 265.433 374.69 262.061 362.835 258.426C361.334 257.952 359.648 258.031 357.935 257.846C357.777 259.111 358.752 259.084 359.279 259.374C359.964 259.796 360.754 260.085 361.518 260.322C370.633 263.194 379.721 266.171 388.915 268.858C400.454 272.23 411.781 276.155 422.924 280.58C425.954 281.766 428.957 283.004 432.013 284.137C445.949 289.274 459.331 295.701 472.634 302.313C473.082 302.524 473.425 302.946 474.61 303.894C472.529 303.367 471.344 303.13 470.185 302.761C458.119 299.02 445.791 296.439 433.488 293.646C418.604 290.275 403.746 286.85 389.205 282.24C381.96 279.948 375.243 276.682 369.237 272.019C363.467 267.54 357.435 263.326 351.797 258.689C347.556 255.186 342.656 253.421 337.466 252.314C331.513 251.05 325.48 250.101 319.527 248.863C317.235 248.389 314.864 247.836 313.362 244.938C314.521 244.806 315.285 244.596 315.97 244.675C324.637 245.886 333.225 247.546 341.392 250.865C352.983 255.554 365.127 257.846 377.456 259.4C382.092 259.98 386.729 260.691 391.312 261.534C396.318 262.456 401.323 263.431 406.038 265.433C413.335 268.515 420.685 271.518 427.903 274.758C435.701 278.262 443.499 281.739 451.059 285.691C456.802 288.694 462.176 292.382 467.708 295.833C467.945 295.991 467.945 296.544 468.077 296.913C468.894 297.229 469.71 297.545 470.817 297.993L470.817 297.967ZM252.535 168.464C267.288 165.461 282.04 162.379 297.135 161.852C307.33 161.509 317.419 162.379 327.456 164.328C350.691 168.859 373.188 175.866 395.448 183.822C408.093 188.353 420.791 192.752 433.462 197.152C437.308 198.495 440.838 200.366 444.078 203C442.208 202.447 440.337 201.92 438.493 201.314C431.144 198.917 423.846 196.309 416.444 194.122C405.722 190.935 394.895 188.063 384.147 184.981C379.853 183.743 375.585 182.347 371.318 181.03C355.143 176.077 338.652 172.495 321.845 170.703C319.764 170.493 317.524 169.465 315.443 170.914L315.364 170.73C319.342 171.52 323.294 172.442 327.298 173.074C341.76 175.392 356.012 178.448 370.106 182.505C389.231 188.011 408.436 193.306 427.35 199.575C430.827 200.734 434.384 201.551 437.888 202.657C438.941 203 439.837 203.817 441.391 204.791C440.206 205.16 439.732 205.45 439.257 205.423C434.173 205.239 429.115 205.055 424.031 204.765C417.919 204.422 411.966 203.184 406.012 201.814C383.963 196.783 362.677 189.275 341.234 182.321C321.581 175.972 301.56 172.02 280.96 170.651C271.845 170.045 262.73 169.202 253.589 169.86C252.825 169.913 252.035 169.544 251.244 169.36C250.902 169.544 250.56 169.808 250.191 169.834C250.006 169.834 249.796 169.386 249.611 169.149C249.822 169.149 250.033 169.044 250.217 169.096C250.586 169.202 250.955 169.386 251.323 169.518C251.719 169.123 252.061 168.49 252.509 168.385L252.535 168.464ZM226.482 371.991C226.482 372.254 226.086 372.544 225.876 372.834C225.823 372.649 225.744 372.439 225.77 372.254C225.823 371.859 225.928 371.49 226.007 371.095C225.797 370.753 225.454 370.41 225.428 370.068C223.821 351.206 222.873 332.318 224.321 313.43C224.901 305.738 226.561 298.151 227.693 290.512C228.405 285.691 229.116 280.844 229.748 276.023C229.933 274.653 229.88 273.257 229.959 270.754C227.983 273.494 227.693 275.68 227.325 277.735C225.323 288.325 223.347 298.915 221.555 309.531C220.265 317.171 220.423 324.942 220.502 332.661C220.581 343.224 220.844 353.788 221.002 364.378C221.002 364.931 220.871 365.51 220.66 366.933C219.843 365.484 219.237 364.773 219 363.956C212.888 343.698 206.671 323.441 206.355 301.997C206.224 293.357 207.33 285.006 210.201 276.813C213.126 268.515 217.051 260.744 221.608 253.236C226.271 245.57 230.301 237.615 233.805 229.343C236.65 222.625 237.73 215.75 236.993 208.479C236.044 199.365 234.991 190.276 232.014 181.53C231.75 180.766 231.698 179.95 231.592 179.159C231.592 179.001 231.698 178.817 231.777 178.633C232.909 178.185 233.858 178.685 234.332 179.607C235.043 181.056 235.57 182.61 236.044 184.138C238.178 191.409 239.1 198.864 239.68 206.398C241.84 234.48 241.102 262.483 237.414 290.406C235.992 301.075 234.332 311.744 232.225 322.308C229.353 336.717 228.115 351.285 226.903 365.879C226.745 367.671 226.245 369.409 225.902 371.174C226.139 371.438 226.561 371.701 226.587 371.991L226.482 371.991ZM58.9375 64.5142C58.8058 64.4352 58.7531 64.1981 58.6741 64.0401C58.9902 64.0401 59.4907 63.882 59.6224 64.0401C59.8068 64.2508 59.7278 64.6987 59.7805 65.0411C61.4138 65.3309 61.9934 66.7534 62.6783 67.9388C64.2326 70.5731 65.5497 73.3128 67.1567 75.9208C68.7373 78.4761 70.1071 81.2684 73.242 82.5065C74.1113 82.849 74.7172 83.8501 75.4022 84.5877C79.5381 89.1714 82.5676 94.4136 84.8331 100.156C90.0755 113.565 92.7098 127.448 92.9205 141.831C93.1313 154.476 92.0776 167.015 90.1545 179.476C87.5992 196.151 84.7804 212.773 82.0407 229.396C81.909 230.16 81.4611 230.871 81.0397 231.898C79.7488 229.027 80.223 226.366 80.3548 223.811C80.987 211.851 81.3821 199.865 83.0417 187.958C84.7804 175.471 84.9121 162.853 85.5707 150.261C85.8605 144.571 85.9395 138.881 86.0712 133.191C86.3347 121.916 84.3853 110.931 81.7773 100.025C81.6982 99.6559 81.3294 99.3661 80.9606 98.8129C80.6181 99.8403 80.0386 100.71 80.065 101.553C80.144 103.581 80.4074 105.609 80.7762 107.585C82.5149 116.805 83.3579 126.104 82.9364 135.483C82.0671 155.161 81.5665 174.865 79.4854 194.491C78.4317 204.58 78.0365 214.749 77.3779 224.865C77.2462 226.867 77.2989 228.869 77.2725 230.924C75.7446 230.845 75.6656 229.685 75.3231 228.869C71.0292 218.99 67.1303 208.953 64.2326 198.522C59.5171 181.53 58.9639 164.46 62.3885 147.232C64.3379 137.458 66.5244 127.738 68.7109 118.043C70.713 109.218 70.7394 100.262 69.9754 91.3578C69.6329 87.4327 67.9733 83.5603 66.4718 79.8196C64.8912 75.8681 62.7837 72.1274 60.966 68.2549C60.4655 67.2012 60.2284 66.0421 59.8596 64.9094C59.5171 64.7777 59.1746 64.646 58.8585 64.4616L58.9375 64.5142ZM190.259 351.364L190.101 351.127C187.572 341.723 185.043 332.292 182.514 322.887C180.433 315.221 178.879 307.477 177.852 299.574C175.718 283.03 176.93 266.697 181.013 250.602C183.199 241.935 185.676 233.321 189.153 225.049C192.235 217.699 194.079 209.981 195.634 202.21C196.108 199.839 196.134 197.362 196.134 194.939C196.134 182.716 194.659 170.598 193.368 158.48C193.052 155.556 192.393 152.658 191.787 149.207C195.212 152.948 195.554 153.659 196.002 157.453C197.056 166.33 198.057 175.208 199.19 184.086C199.48 186.272 199.848 188.564 200.718 190.566C208.41 207.794 211.387 225.866 210.649 244.648C210.228 255.054 208.647 265.249 206.065 275.338C203.168 286.587 201.534 298.046 199.927 309.531C197.451 327.26 196.556 345.121 195.634 362.981C195.581 364.114 195.344 365.247 194.448 366.406C194.185 365.3 193.789 364.22 193.71 363.113C192.999 350.943 192.077 338.772 191.735 326.602C191.208 308.293 191.735 290.037 195.107 271.966C196.872 262.588 198.347 253.131 198.558 243.568C198.61 241.171 198.531 238.774 197.688 236.245C197.399 237.22 196.951 238.168 196.872 239.169C196.239 246.255 195.923 253.368 195.054 260.401C194.316 266.434 192.92 272.414 191.893 278.394C190.286 287.614 189.601 296.939 189.416 306.291C189.416 307.503 189.495 308.741 189.416 309.953C188.679 321.544 189.232 333.108 190.418 344.647C190.655 346.833 191.129 349.099 189.943 351.206L190.233 351.417L190.259 351.364ZM128.247 309.479C127.799 305.027 127.457 300.575 127.193 296.096C126.377 282.503 125.455 268.91 124.928 255.291C124.664 248.6 125.059 241.882 125.376 235.191C125.982 221.572 126.245 207.952 125.428 194.359C125.244 191.356 125.297 188.327 125.244 184.85C123.716 186.773 123.558 188.564 123.558 190.382C123.505 193.832 123.426 197.283 123.505 200.761C123.821 215.407 123.426 230.028 122.399 244.648C121.793 253.394 122.109 262.114 122.794 270.86C123.69 282.424 124.48 293.989 125.376 305.527C125.692 309.558 126.166 313.562 126.587 317.619C126.219 317.566 125.692 317.619 125.613 317.461C121.082 308.135 116.314 298.889 112.151 289.405C106.066 275.496 102.668 260.876 102.431 245.597C102.193 230.924 103.01 216.25 105.091 201.788C107.067 187.932 110.228 174.181 116.103 161.272C118.5 156.004 119.211 150.551 118.368 144.65C116.919 134.587 116.129 124.445 115.154 114.329C114.469 107.243 113.389 100.209 111.73 93.2809C111.624 92.7804 111.782 92.2272 111.914 90.5675C112.915 92.4906 113.653 93.4126 113.89 94.44C115.102 99.5769 116.524 104.714 117.209 109.93C118.421 119.203 119.159 128.528 120.107 137.853C120.318 140.093 120.528 142.305 120.766 144.545C121.029 147.205 121.898 149.497 123.558 151.763C125.428 154.344 126.693 157.453 127.773 160.482C132.409 173.443 133.937 187.01 134.675 200.629C135.044 207.531 135.123 214.459 135.123 221.361C135.123 244.754 134.332 268.094 131.988 291.407C131.277 298.494 130.934 305.606 130.407 312.693C130.355 313.456 130.223 314.22 130.065 315.485C128.379 313.404 128.51 311.375 128.326 309.505L128.247 309.479ZM253.852 376.759C252.43 367.723 250.981 358.688 249.664 349.626C246.634 328.92 247.662 308.267 250.586 287.64C251.666 279.974 253.457 272.467 255.696 265.064C258.752 254.948 261.861 244.833 264.759 234.664C266.155 229.791 267.077 224.759 268.236 219.833C268.42 219.095 268.736 218.384 268.947 217.699C270.844 217.857 270.949 219.201 271.16 220.334C272.029 225.339 273.057 230.344 273.61 235.376C274.611 244.464 275.586 253.579 276.139 262.693C277.377 282.846 276.034 302.919 273.373 322.887C272.24 331.343 270.818 339.773 269.29 348.15C268.42 352.945 267.103 357.66 265.839 362.376C263.705 370.437 261.466 378.471 259.227 386.506C259.016 387.27 258.621 387.981 257.804 389.904C257.988 384.082 257.83 379.499 258.304 374.968C259.437 364.43 259.595 353.893 259.911 343.33C260.517 322.808 262.493 302.366 264.205 281.924C264.627 276.892 264.996 271.834 264.653 266.671C264.337 267.725 263.889 268.779 263.758 269.859C261.413 291.065 259.016 312.271 257.988 333.583C257.672 340.274 257.488 346.991 257.435 353.682C257.356 362.033 256.223 370.279 255.196 378.524C255.196 378.682 254.906 378.787 254.643 379.051C254.353 378.234 253.958 377.523 253.852 376.759ZM158.489 307.793C158.621 299.258 158.937 290.722 159.227 282.214C159.912 262.93 160.676 243.621 161.308 224.338C161.545 216.856 161.519 209.375 161.624 201.841C160.254 201.656 160.544 202.736 160.491 203.316C160.044 207.557 159.385 211.798 159.359 216.04C159.122 240.038 157.673 263.958 156.461 287.904C156.066 295.596 155.908 303.262 155.592 312.218C154.828 310.322 154.406 309.531 154.195 308.715C147.135 281.081 144.606 253.078 147.741 224.654C149.032 212.879 152.272 201.551 155.881 190.303C158.121 183.348 160.07 176.288 162.177 169.281C162.52 168.174 163.02 167.121 163.547 165.83C165.971 167.384 166.445 169.65 166.972 171.757C168.236 176.894 169.448 182.031 170.449 187.22C172.425 197.468 172.636 207.847 172.214 218.2C171.45 236.903 169.527 255.475 166.577 273.968C164.39 287.614 162.625 301.312 160.649 314.984C160.57 315.538 160.281 316.064 160.017 316.881C158.173 313.852 158.489 310.717 158.542 307.74L158.489 307.793ZM213.046 254.237C214.68 233.927 212.283 214.117 205.828 194.807C203.089 186.667 201.35 178.369 200.744 169.808C200.454 165.961 199.875 162.142 199.453 158.322C199.348 157.4 199.401 156.425 199.374 155.609C199.927 155.424 200.191 155.266 200.296 155.319C208.647 160.693 216.998 166.12 224.427 172.784C226.798 174.892 228.352 177.368 229.195 180.398C231.935 190.408 233.568 200.629 234.2 210.982C234.411 214.485 233.91 217.91 232.646 221.15C230.539 226.63 228.22 232.056 225.902 237.457C222.715 244.938 218.421 251.84 214.311 258.847C213.916 259.532 213.442 260.191 212.599 261.508C212.783 258.584 212.862 256.424 213.046 254.237ZM158.41 324.863L158.647 324.521L158.647 324.942L158.41 324.863ZM37.494 192.015L37.5994 191.567L37.7838 191.646L37.494 191.988L37.494 192.015Z" fill="#2D2D2D"/>
</svg>
